<svg xmlns="http://www.w3.org/2000/svg" xmlns:xlink="http://www.w3.org/1999/xlink" width="1500" zoomAndPan="magnify" viewBox="0 0 1125 374.999991" height="500" preserveAspectRatio="xMidYMid meet" version="1.0"><defs><g/><clipPath id="fd1e740368"><path d="M 894.324219 43.203125 L 932.453125 43.203125 L 932.453125 81.332031 L 894.324219 81.332031 Z M 894.324219 43.203125 " clip-rule="nonzero"/></clipPath><clipPath id="66216299ef"><path d="M 913.386719 43.203125 C 902.859375 43.203125 894.324219 51.738281 894.324219 62.265625 C 894.324219 72.796875 902.859375 81.332031 913.386719 81.332031 C 923.917969 81.332031 932.453125 72.796875 932.453125 62.265625 C 932.453125 51.738281 923.917969 43.203125 913.386719 43.203125 Z M 913.386719 43.203125 " clip-rule="nonzero"/></clipPath><clipPath id="7b8c2a7195"><path d="M 0.324219 0.203125 L 38.453125 0.203125 L 38.453125 38.332031 L 0.324219 38.332031 Z M 0.324219 0.203125 " clip-rule="nonzero"/></clipPath><clipPath id="46faa72501"><path d="M 19.386719 0.203125 C 8.859375 0.203125 0.324219 8.738281 0.324219 19.265625 C 0.324219 29.796875 8.859375 38.332031 19.386719 38.332031 C 29.917969 38.332031 38.453125 29.796875 38.453125 19.265625 C 38.453125 8.738281 29.917969 0.203125 19.386719 0.203125 Z M 19.386719 0.203125 " clip-rule="nonzero"/></clipPath><clipPath id="ce49b92bd7"><rect x="0" width="39" y="0" height="39"/></clipPath><clipPath id="2dc58a19d7"><path d="M 0 0.320312 L 1037.519531 0.320312 L 1037.519531 214.640625 L 0 214.640625 Z M 0 0.320312 " clip-rule="nonzero"/></clipPath><clipPath id="24f4910d0c"><rect x="0" width="1038" y="0" height="215"/></clipPath><clipPath id="4d6f7d98ea"><path d="M 989.449219 43.203125 L 1027.578125 43.203125 L 1027.578125 81.332031 L 989.449219 81.332031 Z M 989.449219 43.203125 " clip-rule="nonzero"/></clipPath><clipPath id="3b6fc22ab3"><path d="M 1008.511719 43.203125 C 997.984375 43.203125 989.449219 51.738281 989.449219 62.265625 C 989.449219 72.796875 997.984375 81.332031 1008.511719 81.332031 C 1019.042969 81.332031 1027.578125 72.796875 1027.578125 62.265625 C 1027.578125 51.738281 1019.042969 43.203125 1008.511719 43.203125 Z M 1008.511719 43.203125 " clip-rule="nonzero"/></clipPath><clipPath id="c9542112e9"><path d="M 0.449219 0.203125 L 38.578125 0.203125 L 38.578125 38.332031 L 0.449219 38.332031 Z M 0.449219 0.203125 " clip-rule="nonzero"/></clipPath><clipPath id="dff187cc16"><path d="M 19.511719 0.203125 C 8.984375 0.203125 0.449219 8.738281 0.449219 19.265625 C 0.449219 29.796875 8.984375 38.332031 19.511719 38.332031 C 30.042969 38.332031 38.578125 29.796875 38.578125 19.265625 C 38.578125 8.738281 30.042969 0.203125 19.511719 0.203125 Z M 19.511719 0.203125 " clip-rule="nonzero"/></clipPath><clipPath id="06863f3c3f"><rect x="0" width="39" y="0" height="39"/></clipPath><clipPath id="7c18bd4686"><rect x="0" width="1038" y="0" height="215"/></clipPath></defs><g transform="matrix(1, 0, 0, 1, 42, 76)"><g clip-path="url(#7c18bd4686)"><g clip-path="url(#fd1e740368)"><g clip-path="url(#66216299ef)"><g transform="matrix(1, 0, 0, 1, 894, 43)"><g clip-path="url(#ce49b92bd7)"><g clip-path="url(#7b8c2a7195)"><g clip-path="url(#46faa72501)"><path fill="#000000" d="M 0.324219 0.203125 L 38.453125 0.203125 L 38.453125 38.332031 L 0.324219 38.332031 Z M 0.324219 0.203125 " fill-opacity="1" fill-rule="nonzero"/></g></g></g></g></g></g><g clip-path="url(#2dc58a19d7)"><g><g clip-path="url(#24f4910d0c)"><g fill="#000000" fill-opacity="1"><g transform="translate(3.583752, 165.013021)"><g><path d="M 73.40625 2.109375 C 63.925781 2.109375 55.113281 0.554688 46.96875 -2.546875 C 38.832031 -5.648438 31.78125 -10.066406 25.8125 -15.796875 C 19.84375 -21.535156 15.1875 -28.269531 11.84375 -36 C 8.507812 -43.726562 6.84375 -52.21875 6.84375 -61.46875 C 6.84375 -70.71875 8.507812 -79.203125 11.84375 -86.921875 C 15.1875 -94.648438 19.875 -101.378906 25.90625 -107.109375 C 31.9375 -112.847656 38.988281 -117.269531 47.0625 -120.375 C 55.144531 -123.476562 63.984375 -125.03125 73.578125 -125.03125 C 84.234375 -125.03125 93.863281 -123.1875 102.46875 -119.5 C 111.070312 -115.8125 118.300781 -110.398438 124.15625 -103.265625 L 105.890625 -86.40625 C 101.679688 -91.195312 97 -94.789062 91.84375 -97.1875 C 86.6875 -99.59375 81.066406 -100.796875 74.984375 -100.796875 C 69.242188 -100.796875 63.972656 -99.859375 59.171875 -97.984375 C 54.378906 -96.117188 50.222656 -93.425781 46.703125 -89.90625 C 43.191406 -86.394531 40.472656 -82.238281 38.546875 -77.4375 C 36.617188 -72.644531 35.65625 -67.320312 35.65625 -61.46875 C 35.65625 -55.613281 36.617188 -50.285156 38.546875 -45.484375 C 40.472656 -40.679688 43.191406 -36.523438 46.703125 -33.015625 C 50.222656 -29.503906 54.378906 -26.8125 59.171875 -24.9375 C 63.972656 -23.0625 69.242188 -22.125 74.984375 -22.125 C 81.066406 -22.125 86.6875 -23.320312 91.84375 -25.71875 C 97 -28.125 101.679688 -31.785156 105.890625 -36.703125 L 124.15625 -19.84375 C 118.300781 -12.695312 111.070312 -7.25 102.46875 -3.5 C 93.863281 0.238281 84.175781 2.109375 73.40625 2.109375 Z M 73.40625 2.109375 "/></g></g></g><g fill="#000000" fill-opacity="1"><g transform="translate(130.711103, 165.013021)"><g><path d="M 14.578125 0 L 14.578125 -122.921875 L 43.03125 -122.921875 L 43.03125 0 Z M 14.578125 0 "/></g></g></g><g fill="#000000" fill-opacity="1"><g transform="translate(188.304711, 165.013021)"><g><path d="M 14.578125 0 L 14.578125 -122.921875 L 38.109375 -122.921875 L 110.640625 -34.421875 L 99.21875 -34.421875 L 99.21875 -122.921875 L 127.3125 -122.921875 L 127.3125 0 L 103.953125 0 L 31.265625 -88.5 L 42.671875 -88.5 L 42.671875 0 Z M 14.578125 0 "/></g></g></g><g fill="#000000" fill-opacity="1"><g transform="translate(330.181735, 165.013021)"><g><path d="M 14.578125 0 L 14.578125 -122.921875 L 107.46875 -122.921875 L 107.46875 -100.09375 L 42.84375 -100.09375 L 42.84375 -22.828125 L 109.75 -22.828125 L 109.75 0 Z M 40.734375 -51.28125 L 40.734375 -73.40625 L 99.921875 -73.40625 L 99.921875 -51.28125 Z M 40.734375 -51.28125 "/></g></g></g><g fill="#000000" fill-opacity="1"><g transform="translate(448.002871, 165.013021)"><g><path d="M 14.578125 0 L 14.578125 -122.921875 L 43.03125 -122.921875 L 43.03125 -23.1875 L 104.65625 -23.1875 L 104.65625 0 Z M 14.578125 0 "/></g></g></g><g fill="#000000" fill-opacity="1"><g transform="translate(554.059368, 165.013021)"><g><path d="M 14.578125 0 L 14.578125 -122.921875 L 43.03125 -122.921875 L 43.03125 0 Z M 14.578125 0 "/></g></g></g><g fill="#000000" fill-opacity="1"><g transform="translate(611.652976, 165.013021)"><g><path d="M 14.578125 0 L 14.578125 -122.921875 L 38.109375 -122.921875 L 110.640625 -34.421875 L 99.21875 -34.421875 L 99.21875 -122.921875 L 127.3125 -122.921875 L 127.3125 0 L 103.953125 0 L 31.265625 -88.5 L 42.671875 -88.5 L 42.671875 0 Z M 14.578125 0 "/></g></g></g><g fill="#000000" fill-opacity="1"><g transform="translate(753.53, 165.013021)"><g><path d="M 73.9375 2.109375 C 64.21875 2.109375 55.289062 0.554688 47.15625 -2.546875 C 39.019531 -5.648438 31.9375 -10.066406 25.90625 -15.796875 C 19.875 -21.535156 15.1875 -28.269531 11.84375 -36 C 8.507812 -43.726562 6.84375 -52.21875 6.84375 -61.46875 C 6.84375 -70.71875 8.507812 -79.203125 11.84375 -86.921875 C 15.1875 -94.648438 19.898438 -101.378906 25.984375 -107.109375 C 32.078125 -112.847656 39.21875 -117.269531 47.40625 -120.375 C 55.601562 -123.476562 64.617188 -125.03125 74.453125 -125.03125 C 85.347656 -125.03125 95.15625 -123.210938 103.875 -119.578125 C 112.59375 -115.953125 119.9375 -110.6875 125.90625 -103.78125 L 107.65625 -86.921875 C 103.195312 -91.609375 98.332031 -95.09375 93.0625 -97.375 C 87.800781 -99.65625 82.066406 -100.796875 75.859375 -100.796875 C 69.890625 -100.796875 64.445312 -99.859375 59.53125 -97.984375 C 54.613281 -96.117188 50.367188 -93.425781 46.796875 -89.90625 C 43.222656 -86.394531 40.472656 -82.238281 38.546875 -77.4375 C 36.617188 -72.644531 35.65625 -67.320312 35.65625 -61.46875 C 35.65625 -55.726562 36.617188 -50.457031 38.546875 -45.65625 C 40.472656 -40.851562 43.222656 -36.664062 46.796875 -33.09375 C 50.367188 -29.53125 54.582031 -26.8125 59.4375 -24.9375 C 64.300781 -23.0625 69.660156 -22.125 75.515625 -22.125 C 81.128906 -22.125 86.597656 -23.03125 91.921875 -24.84375 C 97.253906 -26.664062 102.4375 -29.738281 107.46875 -34.0625 L 123.625 -13.515625 C 116.957031 -8.484375 109.203125 -4.617188 100.359375 -1.921875 C 91.523438 0.765625 82.71875 2.109375 73.9375 2.109375 Z M 123.625 -13.515625 L 97.640625 -17.203125 L 97.640625 -63.390625 L 123.625 -63.390625 Z M 123.625 -13.515625 "/></g></g></g><g fill="#000000" fill-opacity="1"><g transform="translate(888.910097, 165.013021)"><g><path d="M 74.28125 2.109375 C 64.5625 2.109375 55.578125 0.53125 47.328125 -2.625 C 39.078125 -5.789062 31.9375 -10.238281 25.90625 -15.96875 C 19.875 -21.707031 15.1875 -28.441406 11.84375 -36.171875 C 8.507812 -43.898438 6.84375 -52.332031 6.84375 -61.46875 C 6.84375 -70.59375 8.507812 -79.019531 11.84375 -86.75 C 15.1875 -94.476562 19.898438 -101.207031 25.984375 -106.9375 C 32.078125 -112.675781 39.21875 -117.125 47.40625 -120.28125 C 55.601562 -123.445312 64.503906 -125.03125 74.109375 -125.03125 C 83.828125 -125.03125 92.753906 -123.445312 100.890625 -120.28125 C 109.023438 -117.125 116.109375 -112.675781 122.140625 -106.9375 C 128.171875 -101.207031 132.878906 -94.507812 136.265625 -86.84375 C 139.660156 -79.175781 141.359375 -70.71875 141.359375 -61.46875 C 141.359375 -52.332031 139.660156 -43.867188 136.265625 -36.078125 C 132.878906 -28.296875 128.171875 -21.566406 122.140625 -15.890625 C 116.109375 -10.210938 109.023438 -5.789062 100.890625 -2.625 C 92.753906 0.53125 83.882812 2.109375 74.28125 2.109375 Z M 74.109375 -22.125 C 79.609375 -22.125 84.671875 -23.0625 89.296875 -24.9375 C 93.921875 -26.8125 97.988281 -29.503906 101.5 -33.015625 C 105.007812 -36.523438 107.726562 -40.679688 109.65625 -45.484375 C 111.59375 -50.285156 112.5625 -55.613281 112.5625 -61.46875 C 112.5625 -67.320312 111.59375 -72.644531 109.65625 -77.4375 C 107.726562 -82.238281 105.035156 -86.394531 101.578125 -89.90625 C 98.128906 -93.425781 94.0625 -96.117188 89.375 -97.984375 C 84.695312 -99.859375 79.609375 -100.796875 74.109375 -100.796875 C 68.609375 -100.796875 63.546875 -99.859375 58.921875 -97.984375 C 54.296875 -96.117188 50.222656 -93.425781 46.703125 -89.90625 C 43.191406 -86.394531 40.472656 -82.238281 38.546875 -77.4375 C 36.617188 -72.644531 35.65625 -67.320312 35.65625 -61.46875 C 35.65625 -55.726562 36.617188 -50.425781 38.546875 -45.5625 C 40.472656 -40.707031 43.164062 -36.523438 46.625 -33.015625 C 50.082031 -29.503906 54.148438 -26.8125 58.828125 -24.9375 C 63.515625 -23.0625 68.609375 -22.125 74.109375 -22.125 Z M 74.109375 -22.125 "/></g></g></g></g></g></g><g clip-path="url(#4d6f7d98ea)"><g clip-path="url(#3b6fc22ab3)"><g transform="matrix(1, 0, 0, 1, 989, 43)"><g clip-path="url(#06863f3c3f)"><g clip-path="url(#c9542112e9)"><g clip-path="url(#dff187cc16)"><path fill="#000000" d="M 0.449219 0.203125 L 38.578125 0.203125 L 38.578125 38.332031 L 0.449219 38.332031 Z M 0.449219 0.203125 " fill-opacity="1" fill-rule="nonzero"/></g></g></g></g></g></g></g></g></svg>