<svg xmlns="http://www.w3.org/2000/svg" xmlns:xlink="http://www.w3.org/1999/xlink" width="500" zoomAndPan="magnify" viewBox="0 0 375 374.999991" height="500" preserveAspectRatio="xMidYMid meet" version="1.0"><defs><clipPath id="04cc3cd7d3"><path d="M 201 129 L 229 129 L 229 212 L 201 212 Z M 201 129 " clip-rule="nonzero"/></clipPath><clipPath id="7f3e1f57ca"><path d="M 216.230469 211.078125 C 215.863281 211.078125 215.519531 211.015625 215.246094 210.941406 C 215.820312 208.707031 216.277344 206.007812 216.46875 202.777344 C 216.972656 194.371094 214.238281 186.054688 212.25 181.222656 C 212.328125 179.640625 212.257812 177.898438 212.070312 176.050781 C 211.390625 169.40625 209.386719 161.328125 208.164062 158.835938 C 207.273438 157.007812 204.003906 149.300781 201.757812 144.375 C 202.222656 144.734375 202.726562 144.949219 203.253906 144.949219 C 203.84375 144.949219 204.476562 144.691406 205.140625 144.089844 C 207.945312 141.566406 208.480469 134.394531 208.523438 129.929688 C 208.808594 131.960938 209.175781 133.878906 209.570312 135.574219 C 211.128906 142.1875 220.882812 158.804688 223.089844 163.4375 C 225.300781 168.070312 228.554688 178.160156 228.683594 186.644531 C 228.757812 191.460938 227.972656 198.03125 226.660156 204.136719 C 225.925781 201.511719 224.816406 198.589844 223.480469 198.265625 C 223.398438 198.242188 223.320312 198.234375 223.234375 198.234375 C 220.945312 198.234375 219.988281 206.199219 218.796875 209.167969 C 218.1875 210.6875 217.132812 211.070312 216.222656 211.070312 Z M 216.230469 211.078125 " clip-rule="nonzero"/></clipPath><linearGradient x1="134.156145" gradientTransform="matrix(0.854938, 0, 0, 0.858645, 86.011705, 32.339239)" y1="114.06008" x2="165.307433" gradientUnits="userSpaceOnUse" y2="208.711484" id="e447387961"><stop stop-opacity="1" stop-color="rgb(90.979004%, 27.449036%, 19.219971%)" offset="0"/><stop stop-opacity="1" stop-color="rgb(90.979004%, 27.449036%, 19.219971%)" offset="0.0625"/><stop stop-opacity="1" stop-color="rgb(90.979004%, 27.449036%, 19.219971%)" offset="0.09375"/><stop stop-opacity="1" stop-color="rgb(90.979004%, 27.449036%, 19.219971%)" offset="0.0990889"/><stop stop-opacity="1" stop-color="rgb(90.979004%, 27.449036%, 19.219971%)" offset="0.109375"/><stop stop-opacity="1" stop-color="rgb(90.895081%, 27.377319%, 19.314575%)" offset="0.117187"/><stop stop-opacity="1" stop-color="rgb(90.698242%, 27.207947%, 19.538879%)" offset="0.125"/><stop stop-opacity="1" stop-color="rgb(90.472412%, 27.015686%, 19.796753%)" offset="0.132812"/><stop stop-opacity="1" stop-color="rgb(90.248108%, 26.821899%, 20.054626%)" offset="0.140625"/><stop stop-opacity="1" stop-color="rgb(90.022278%, 26.629639%, 20.310974%)" offset="0.148437"/><stop stop-opacity="1" stop-color="rgb(89.797974%, 26.435852%, 20.568848%)" offset="0.15625"/><stop stop-opacity="1" stop-color="rgb(89.572144%, 26.243591%, 20.826721%)" offset="0.164062"/><stop stop-opacity="1" stop-color="rgb(89.346313%, 26.049805%, 21.083069%)" offset="0.171875"/><stop stop-opacity="1" stop-color="rgb(89.122009%, 25.857544%, 21.340942%)" offset="0.179687"/><stop stop-opacity="1" stop-color="rgb(88.896179%, 25.663757%, 21.598816%)" offset="0.1875"/><stop stop-opacity="1" stop-color="rgb(88.670349%, 25.471497%, 21.855164%)" offset="0.195312"/><stop stop-opacity="1" stop-color="rgb(88.446045%, 25.27771%, 22.113037%)" offset="0.203125"/><stop stop-opacity="1" stop-color="rgb(88.220215%, 25.083923%, 22.370911%)" offset="0.210937"/><stop stop-opacity="1" stop-color="rgb(87.994385%, 24.891663%, 22.627258%)" offset="0.21875"/><stop stop-opacity="1" stop-color="rgb(87.770081%, 24.697876%, 22.885132%)" offset="0.226562"/><stop stop-opacity="1" stop-color="rgb(87.54425%, 24.505615%, 23.143005%)" offset="0.234375"/><stop stop-opacity="1" stop-color="rgb(87.319946%, 24.311829%, 23.399353%)" offset="0.242187"/><stop stop-opacity="1" stop-color="rgb(87.094116%, 24.119568%, 23.657227%)" offset="0.25"/><stop stop-opacity="1" stop-color="rgb(86.868286%, 23.925781%, 23.9151%)" offset="0.257812"/><stop stop-opacity="1" stop-color="rgb(86.643982%, 23.733521%, 24.172974%)" offset="0.265625"/><stop stop-opacity="1" stop-color="rgb(86.418152%, 23.539734%, 24.429321%)" offset="0.273437"/><stop stop-opacity="1" stop-color="rgb(86.192322%, 23.347473%, 24.687195%)" offset="0.28125"/><stop stop-opacity="1" stop-color="rgb(85.968018%, 23.153687%, 24.945068%)" offset="0.289062"/><stop stop-opacity="1" stop-color="rgb(85.742188%, 22.961426%, 25.201416%)" offset="0.296875"/><stop stop-opacity="1" stop-color="rgb(85.516357%, 22.767639%, 25.45929%)" offset="0.304687"/><stop stop-opacity="1" stop-color="rgb(85.292053%, 22.575378%, 25.717163%)" offset="0.3125"/><stop stop-opacity="1" stop-color="rgb(85.066223%, 22.381592%, 25.973511%)" offset="0.320312"/><stop stop-opacity="1" stop-color="rgb(84.841919%, 22.189331%, 26.231384%)" offset="0.328125"/><stop stop-opacity="1" stop-color="rgb(84.616089%, 21.995544%, 26.489258%)" offset="0.335937"/><stop stop-opacity="1" stop-color="rgb(84.390259%, 21.803284%, 26.745605%)" offset="0.34375"/><stop stop-opacity="1" stop-color="rgb(84.165955%, 21.609497%, 27.003479%)" offset="0.351562"/><stop stop-opacity="1" stop-color="rgb(83.940125%, 21.41571%, 27.261353%)" offset="0.359375"/><stop stop-opacity="1" stop-color="rgb(83.714294%, 21.22345%, 27.5177%)" offset="0.367187"/><stop stop-opacity="1" stop-color="rgb(83.48999%, 21.029663%, 27.775574%)" offset="0.375"/><stop stop-opacity="1" stop-color="rgb(83.26416%, 20.837402%, 28.033447%)" offset="0.382812"/><stop stop-opacity="1" stop-color="rgb(83.03833%, 20.643616%, 28.289795%)" offset="0.390625"/><stop stop-opacity="1" stop-color="rgb(82.814026%, 20.451355%, 28.547668%)" offset="0.398437"/><stop stop-opacity="1" stop-color="rgb(82.588196%, 20.257568%, 28.805542%)" offset="0.40625"/><stop stop-opacity="1" stop-color="rgb(82.363892%, 20.065308%, 29.06189%)" offset="0.414062"/><stop stop-opacity="1" stop-color="rgb(82.138062%, 19.871521%, 29.319763%)" offset="0.421875"/><stop stop-opacity="1" stop-color="rgb(81.912231%, 19.67926%, 29.577637%)" offset="0.429687"/><stop stop-opacity="1" stop-color="rgb(81.687927%, 19.485474%, 29.833984%)" offset="0.4375"/><stop stop-opacity="1" stop-color="rgb(81.462097%, 19.293213%, 30.091858%)" offset="0.445312"/><stop stop-opacity="1" stop-color="rgb(81.236267%, 19.099426%, 30.349731%)" offset="0.453125"/><stop stop-opacity="1" stop-color="rgb(81.011963%, 18.907166%, 30.607605%)" offset="0.460938"/><stop stop-opacity="1" stop-color="rgb(80.786133%, 18.713379%, 30.863953%)" offset="0.46875"/><stop stop-opacity="1" stop-color="rgb(80.560303%, 18.521118%, 31.121826%)" offset="0.476562"/><stop stop-opacity="1" stop-color="rgb(80.335999%, 18.327332%, 31.3797%)" offset="0.484375"/><stop stop-opacity="1" stop-color="rgb(80.110168%, 18.135071%, 31.636047%)" offset="0.492187"/><stop stop-opacity="1" stop-color="rgb(79.885864%, 17.941284%, 31.893921%)" offset="0.5"/><stop stop-opacity="1" stop-color="rgb(79.660034%, 17.747498%, 32.151794%)" offset="0.507812"/><stop stop-opacity="1" stop-color="rgb(79.434204%, 17.555237%, 32.408142%)" offset="0.515625"/><stop stop-opacity="1" stop-color="rgb(79.2099%, 17.36145%, 32.666016%)" offset="0.523437"/><stop stop-opacity="1" stop-color="rgb(78.98407%, 17.169189%, 32.923889%)" offset="0.53125"/><stop stop-opacity="1" stop-color="rgb(78.75824%, 16.975403%, 33.180237%)" offset="0.539062"/><stop stop-opacity="1" stop-color="rgb(78.533936%, 16.783142%, 33.43811%)" offset="0.546875"/><stop stop-opacity="1" stop-color="rgb(78.308105%, 16.589355%, 33.695984%)" offset="0.554687"/><stop stop-opacity="1" stop-color="rgb(78.082275%, 16.397095%, 33.952332%)" offset="0.5625"/><stop stop-opacity="1" stop-color="rgb(77.857971%, 16.203308%, 34.210205%)" offset="0.570312"/><stop stop-opacity="1" stop-color="rgb(77.632141%, 16.011047%, 34.468079%)" offset="0.578125"/><stop stop-opacity="1" stop-color="rgb(77.407837%, 15.817261%, 34.724426%)" offset="0.585937"/><stop stop-opacity="1" stop-color="rgb(77.182007%, 15.625%, 34.9823%)" offset="0.59375"/><stop stop-opacity="1" stop-color="rgb(76.956177%, 15.431213%, 35.240173%)" offset="0.601562"/><stop stop-opacity="1" stop-color="rgb(76.731873%, 15.238953%, 35.496521%)" offset="0.609375"/><stop stop-opacity="1" stop-color="rgb(76.506042%, 15.045166%, 35.754395%)" offset="0.617188"/><stop stop-opacity="1" stop-color="rgb(76.280212%, 14.852905%, 36.012268%)" offset="0.625"/><stop stop-opacity="1" stop-color="rgb(76.055908%, 14.659119%, 36.268616%)" offset="0.632812"/><stop stop-opacity="1" stop-color="rgb(75.830078%, 14.466858%, 36.526489%)" offset="0.640625"/><stop stop-opacity="1" stop-color="rgb(75.604248%, 14.273071%, 36.784363%)" offset="0.648437"/><stop stop-opacity="1" stop-color="rgb(75.379944%, 14.079285%, 37.042236%)" offset="0.65625"/><stop stop-opacity="1" stop-color="rgb(75.154114%, 13.887024%, 37.298584%)" offset="0.664062"/><stop stop-opacity="1" stop-color="rgb(74.92981%, 13.693237%, 37.556458%)" offset="0.671875"/><stop stop-opacity="1" stop-color="rgb(74.703979%, 13.500977%, 37.814331%)" offset="0.679687"/><stop stop-opacity="1" stop-color="rgb(74.478149%, 13.30719%, 38.070679%)" offset="0.6875"/><stop stop-opacity="1" stop-color="rgb(74.253845%, 13.114929%, 38.328552%)" offset="0.695312"/><stop stop-opacity="1" stop-color="rgb(74.028015%, 12.921143%, 38.586426%)" offset="0.703125"/><stop stop-opacity="1" stop-color="rgb(73.802185%, 12.728882%, 38.842773%)" offset="0.710937"/><stop stop-opacity="1" stop-color="rgb(73.577881%, 12.535095%, 39.100647%)" offset="0.71875"/><stop stop-opacity="1" stop-color="rgb(73.352051%, 12.342834%, 39.358521%)" offset="0.726562"/><stop stop-opacity="1" stop-color="rgb(73.126221%, 12.149048%, 39.614868%)" offset="0.734375"/><stop stop-opacity="1" stop-color="rgb(72.901917%, 11.956787%, 39.872742%)" offset="0.742187"/><stop stop-opacity="1" stop-color="rgb(72.676086%, 11.763%, 40.130615%)" offset="0.75"/><stop stop-opacity="1" stop-color="rgb(72.450256%, 11.57074%, 40.386963%)" offset="0.757812"/><stop stop-opacity="1" stop-color="rgb(72.225952%, 11.376953%, 40.644836%)" offset="0.765625"/><stop stop-opacity="1" stop-color="rgb(72.000122%, 11.184692%, 40.90271%)" offset="0.773437"/><stop stop-opacity="1" stop-color="rgb(71.775818%, 10.990906%, 41.159058%)" offset="0.78125"/><stop stop-opacity="1" stop-color="rgb(71.549988%, 10.798645%, 41.416931%)" offset="0.789062"/><stop stop-opacity="1" stop-color="rgb(71.324158%, 10.604858%, 41.674805%)" offset="0.796875"/><stop stop-opacity="1" stop-color="rgb(71.099854%, 10.411072%, 41.931152%)" offset="0.804687"/><stop stop-opacity="1" stop-color="rgb(70.874023%, 10.218811%, 42.189026%)" offset="0.8125"/><stop stop-opacity="1" stop-color="rgb(70.648193%, 10.025024%, 42.446899%)" offset="0.820312"/><stop stop-opacity="1" stop-color="rgb(70.423889%, 9.832764%, 42.703247%)" offset="0.828125"/><stop stop-opacity="1" stop-color="rgb(70.198059%, 9.638977%, 42.961121%)" offset="0.835937"/><stop stop-opacity="1" stop-color="rgb(69.972229%, 9.446716%, 43.218994%)" offset="0.84375"/><stop stop-opacity="1" stop-color="rgb(69.747925%, 9.25293%, 43.476868%)" offset="0.851562"/><stop stop-opacity="1" stop-color="rgb(69.522095%, 9.060669%, 43.733215%)" offset="0.859375"/><stop stop-opacity="1" stop-color="rgb(69.297791%, 8.866882%, 43.991089%)" offset="0.867187"/><stop stop-opacity="1" stop-color="rgb(69.100952%, 8.699036%, 44.215393%)" offset="0.875"/><stop stop-opacity="1" stop-color="rgb(69.018555%, 8.628845%, 44.309998%)" offset="0.900911"/><stop stop-opacity="1" stop-color="rgb(69.018555%, 8.628845%, 44.309998%)" offset="1"/></linearGradient><clipPath id="f1cdb794e7"><path d="M 178 106 L 213 106 L 213 189 L 178 189 Z M 178 106 " clip-rule="nonzero"/></clipPath><clipPath id="9ec19fe056"><path d="M 207.523438 188.472656 C 205.796875 188.472656 204.316406 187.390625 202.941406 185.515625 C 201.144531 183.070312 199.527344 179.273438 197.777344 174.699219 C 195.210938 167.988281 189.75 164.878906 187.777344 163.953125 C 187.503906 162.816406 187.105469 161.695312 186.632812 160.675781 C 184.753906 156.585938 181.757812 151.695312 180.558594 149.683594 C 179.359375 147.671875 177.902344 144.152344 179.558594 143.339844 C 179.804688 143.214844 180.042969 143.164062 180.269531 143.164062 C 181.5625 143.164062 182.523438 144.902344 183.164062 145.910156 C 183.921875 147.082031 184.632812 151.832031 186.257812 155.75 C 187.566406 158.875 189.3125 159.925781 190.871094 159.925781 C 191.269531 159.925781 191.652344 159.855469 192.011719 159.742188 C 193.789062 159.148438 194.738281 155.605469 194.300781 150.019531 C 193.867188 144.4375 191.519531 132.835938 195.570312 120.246094 C 199.617188 107.660156 204.941406 106.347656 204.941406 106.347656 C 204.941406 106.347656 204.652344 106.984375 201.277344 114.179688 C 197.898438 121.375 197.339844 130.78125 197.722656 134.5 C 198 137.101562 199.457031 142.59375 201.75 144.382812 C 203.996094 149.300781 207.265625 157.007812 208.160156 158.84375 C 209.378906 161.34375 211.375 169.421875 212.0625 176.058594 C 212.25 177.898438 212.320312 179.648438 212.246094 181.230469 C 212.046875 185.332031 210.816406 188.257812 207.820312 188.472656 C 207.722656 188.480469 207.625 188.480469 207.523438 188.480469 Z M 207.523438 188.472656 " clip-rule="nonzero"/></clipPath><linearGradient x1="96.152033" gradientTransform="matrix(0.854938, 0, 0, 0.858645, 86.011705, 32.339239)" y1="118.612105" x2="161.818703" gradientUnits="userSpaceOnUse" y2="141.560218" id="e6b955a69a"><stop stop-opacity="1" stop-color="rgb(90.589905%, 30.198669%, 9.799194%)" offset="0"/><stop stop-opacity="1" stop-color="rgb(90.589905%, 30.198669%, 9.799194%)" offset="0.125"/><stop stop-opacity="1" stop-color="rgb(90.589905%, 30.198669%, 9.799194%)" offset="0.1875"/><stop stop-opacity="1" stop-color="rgb(90.589905%, 30.198669%, 9.799194%)" offset="0.21875"/><stop stop-opacity="1" stop-color="rgb(90.589905%, 30.198669%, 9.799194%)" offset="0.226562"/><stop stop-opacity="1" stop-color="rgb(90.617371%, 30.447388%, 9.809875%)" offset="0.230469"/><stop stop-opacity="1" stop-color="rgb(90.646362%, 30.697632%, 9.820557%)" offset="0.234375"/><stop stop-opacity="1" stop-color="rgb(90.716553%, 31.314087%, 9.844971%)" offset="0.238281"/><stop stop-opacity="1" stop-color="rgb(90.788269%, 31.930542%, 9.870911%)" offset="0.242188"/><stop stop-opacity="1" stop-color="rgb(90.858459%, 32.546997%, 9.896851%)" offset="0.246094"/><stop stop-opacity="1" stop-color="rgb(90.92865%, 33.163452%, 9.922791%)" offset="0.25"/><stop stop-opacity="1" stop-color="rgb(90.99884%, 33.779907%, 9.94873%)" offset="0.253906"/><stop stop-opacity="1" stop-color="rgb(91.070557%, 34.396362%, 9.97467%)" offset="0.257812"/><stop stop-opacity="1" stop-color="rgb(91.140747%, 35.012817%, 9.999084%)" offset="0.261719"/><stop stop-opacity="1" stop-color="rgb(91.210938%, 35.629272%, 10.025024%)" offset="0.265625"/><stop stop-opacity="1" stop-color="rgb(91.281128%, 36.245728%, 10.050964%)" offset="0.269531"/><stop stop-opacity="1" stop-color="rgb(91.352844%, 36.862183%, 10.076904%)" offset="0.273437"/><stop stop-opacity="1" stop-color="rgb(91.423035%, 37.478638%, 10.102844%)" offset="0.277344"/><stop stop-opacity="1" stop-color="rgb(91.493225%, 38.095093%, 10.128784%)" offset="0.28125"/><stop stop-opacity="1" stop-color="rgb(91.563416%, 38.711548%, 10.154724%)" offset="0.285156"/><stop stop-opacity="1" stop-color="rgb(91.635132%, 39.328003%, 10.180664%)" offset="0.289062"/><stop stop-opacity="1" stop-color="rgb(91.705322%, 39.944458%, 10.205078%)" offset="0.292969"/><stop stop-opacity="1" stop-color="rgb(91.775513%, 40.560913%, 10.231018%)" offset="0.296875"/><stop stop-opacity="1" stop-color="rgb(91.845703%, 41.177368%, 10.256958%)" offset="0.300781"/><stop stop-opacity="1" stop-color="rgb(91.917419%, 41.793823%, 10.282898%)" offset="0.304688"/><stop stop-opacity="1" stop-color="rgb(91.98761%, 42.408752%, 10.308838%)" offset="0.308594"/><stop stop-opacity="1" stop-color="rgb(92.0578%, 43.025208%, 10.334778%)" offset="0.3125"/><stop stop-opacity="1" stop-color="rgb(92.127991%, 43.641663%, 10.359192%)" offset="0.316406"/><stop stop-opacity="1" stop-color="rgb(92.199707%, 44.258118%, 10.385132%)" offset="0.320312"/><stop stop-opacity="1" stop-color="rgb(92.269897%, 44.874573%, 10.411072%)" offset="0.324219"/><stop stop-opacity="1" stop-color="rgb(92.340088%, 45.491028%, 10.437012%)" offset="0.328125"/><stop stop-opacity="1" stop-color="rgb(92.410278%, 46.107483%, 10.462952%)" offset="0.332031"/><stop stop-opacity="1" stop-color="rgb(92.481995%, 46.723938%, 10.488892%)" offset="0.335938"/><stop stop-opacity="1" stop-color="rgb(92.552185%, 47.340393%, 10.513306%)" offset="0.339844"/><stop stop-opacity="1" stop-color="rgb(92.622375%, 47.956848%, 10.539246%)" offset="0.34375"/><stop stop-opacity="1" stop-color="rgb(92.692566%, 48.573303%, 10.565186%)" offset="0.347656"/><stop stop-opacity="1" stop-color="rgb(92.764282%, 49.189758%, 10.591125%)" offset="0.351562"/><stop stop-opacity="1" stop-color="rgb(92.834473%, 49.806213%, 10.617065%)" offset="0.355469"/><stop stop-opacity="1" stop-color="rgb(92.904663%, 50.422668%, 10.643005%)" offset="0.359375"/><stop stop-opacity="1" stop-color="rgb(92.974854%, 51.039124%, 10.668945%)" offset="0.363281"/><stop stop-opacity="1" stop-color="rgb(93.04657%, 51.655579%, 10.694885%)" offset="0.367188"/><stop stop-opacity="1" stop-color="rgb(93.11676%, 52.272034%, 10.719299%)" offset="0.371094"/><stop stop-opacity="1" stop-color="rgb(93.186951%, 52.888489%, 10.745239%)" offset="0.375"/><stop stop-opacity="1" stop-color="rgb(93.257141%, 53.504944%, 10.771179%)" offset="0.378906"/><stop stop-opacity="1" stop-color="rgb(93.328857%, 54.121399%, 10.797119%)" offset="0.382812"/><stop stop-opacity="1" stop-color="rgb(93.399048%, 54.737854%, 10.823059%)" offset="0.386719"/><stop stop-opacity="1" stop-color="rgb(93.469238%, 55.354309%, 10.848999%)" offset="0.390625"/><stop stop-opacity="1" stop-color="rgb(93.539429%, 55.969238%, 10.873413%)" offset="0.394531"/><stop stop-opacity="1" stop-color="rgb(93.611145%, 56.585693%, 10.899353%)" offset="0.398437"/><stop stop-opacity="1" stop-color="rgb(93.681335%, 57.202148%, 10.925293%)" offset="0.402344"/><stop stop-opacity="1" stop-color="rgb(93.751526%, 57.818604%, 10.951233%)" offset="0.40625"/><stop stop-opacity="1" stop-color="rgb(93.821716%, 58.435059%, 10.977173%)" offset="0.410156"/><stop stop-opacity="1" stop-color="rgb(93.893433%, 59.051514%, 11.003113%)" offset="0.414062"/><stop stop-opacity="1" stop-color="rgb(93.963623%, 59.667969%, 11.027527%)" offset="0.417969"/><stop stop-opacity="1" stop-color="rgb(94.033813%, 60.284424%, 11.053467%)" offset="0.421875"/><stop stop-opacity="1" stop-color="rgb(94.104004%, 60.900879%, 11.079407%)" offset="0.425781"/><stop stop-opacity="1" stop-color="rgb(94.17572%, 61.517334%, 11.105347%)" offset="0.429687"/><stop stop-opacity="1" stop-color="rgb(94.245911%, 62.133789%, 11.131287%)" offset="0.433594"/><stop stop-opacity="1" stop-color="rgb(94.316101%, 62.750244%, 11.157227%)" offset="0.4375"/><stop stop-opacity="1" stop-color="rgb(94.386292%, 63.366699%, 11.183167%)" offset="0.441406"/><stop stop-opacity="1" stop-color="rgb(94.458008%, 63.983154%, 11.209106%)" offset="0.445312"/><stop stop-opacity="1" stop-color="rgb(94.528198%, 64.599609%, 11.233521%)" offset="0.449219"/><stop stop-opacity="1" stop-color="rgb(94.598389%, 65.216064%, 11.25946%)" offset="0.453125"/><stop stop-opacity="1" stop-color="rgb(94.668579%, 65.83252%, 11.2854%)" offset="0.457031"/><stop stop-opacity="1" stop-color="rgb(94.740295%, 66.448975%, 11.31134%)" offset="0.460938"/><stop stop-opacity="1" stop-color="rgb(94.810486%, 67.06543%, 11.33728%)" offset="0.464844"/><stop stop-opacity="1" stop-color="rgb(94.880676%, 67.681885%, 11.36322%)" offset="0.46875"/><stop stop-opacity="1" stop-color="rgb(94.889832%, 67.759705%, 11.366272%)" offset="0.5"/><stop stop-opacity="1" stop-color="rgb(94.898987%, 67.83905%, 11.369324%)" offset="0.546357"/><stop stop-opacity="1" stop-color="rgb(94.898987%, 67.83905%, 11.369324%)" offset="1"/></linearGradient><clipPath id="f8a4ad3e88"><path d="M 169 207 L 201 207 L 201 244 L 169 244 Z M 169 207 " clip-rule="nonzero"/></clipPath><clipPath id="952f8275bb"><path d="M 182.1875 243.636719 C 177.71875 243.121094 173.65625 242.234375 169.980469 241.136719 C 173.136719 240.960938 179.515625 239.945312 182.5625 234.792969 C 186.707031 227.789062 188.800781 211.945312 192.460938 208.285156 C 192.589844 208.179688 192.707031 208.0625 192.828125 207.957031 C 193.578125 207.335938 194.386719 207.058594 195.195312 207.058594 C 196.746094 207.058594 198.28125 208.09375 199.359375 209.765625 C 200.320312 211.246094 200.917969 213.226562 200.847656 215.421875 C 200.832031 215.695312 200.808594 215.957031 200.792969 216.1875 C 200.59375 219.273438 200.9375 225.882812 195.96875 233.617188 C 192.386719 239.195312 185.664062 242.324219 182.1875 243.644531 Z M 182.1875 243.636719 " clip-rule="nonzero"/></clipPath><linearGradient x1="131.628321" gradientTransform="matrix(0.854938, 0, 0, 0.858645, 86.011705, 32.339239)" y1="202.103745" x2="107.665033" gradientUnits="userSpaceOnUse" y2="250.746484" id="e89dff072b"><stop stop-opacity="1" stop-color="rgb(6.669617%, 50.979614%, 36.079407%)" offset="0"/><stop stop-opacity="1" stop-color="rgb(6.646729%, 50.904846%, 36.143494%)" offset="0.125"/><stop stop-opacity="1" stop-color="rgb(6.573486%, 50.665283%, 36.351013%)" offset="0.15625"/><stop stop-opacity="1" stop-color="rgb(6.472778%, 50.334167%, 36.637878%)" offset="0.1875"/><stop stop-opacity="1" stop-color="rgb(6.37207%, 50.003052%, 36.92627%)" offset="0.21875"/><stop stop-opacity="1" stop-color="rgb(6.269836%, 49.671936%, 37.214661%)" offset="0.25"/><stop stop-opacity="1" stop-color="rgb(6.169128%, 49.34082%, 37.503052%)" offset="0.28125"/><stop stop-opacity="1" stop-color="rgb(6.06842%, 49.008179%, 37.791443%)" offset="0.295113"/><stop stop-opacity="1" stop-color="rgb(6.018066%, 48.843384%, 37.934875%)" offset="0.3125"/><stop stop-opacity="1" stop-color="rgb(5.967712%, 48.677063%, 38.078308%)" offset="0.34375"/><stop stop-opacity="1" stop-color="rgb(5.867004%, 48.345947%, 38.366699%)" offset="0.375"/><stop stop-opacity="1" stop-color="rgb(5.764771%, 48.014832%, 38.65509%)" offset="0.40625"/><stop stop-opacity="1" stop-color="rgb(5.664062%, 47.68219%, 38.943481%)" offset="0.4375"/><stop stop-opacity="1" stop-color="rgb(5.563354%, 47.351074%, 39.231873%)" offset="0.46875"/><stop stop-opacity="1" stop-color="rgb(5.462646%, 47.019958%, 39.520264%)" offset="0.5"/><stop stop-opacity="1" stop-color="rgb(5.360413%, 46.688843%, 39.807129%)" offset="0.53125"/><stop stop-opacity="1" stop-color="rgb(5.259705%, 46.356201%, 40.09552%)" offset="0.5625"/><stop stop-opacity="1" stop-color="rgb(5.158997%, 46.025085%, 40.383911%)" offset="0.59375"/><stop stop-opacity="1" stop-color="rgb(5.058289%, 45.69397%, 40.672302%)" offset="0.625"/><stop stop-opacity="1" stop-color="rgb(4.956055%, 45.362854%, 40.960693%)" offset="0.65625"/><stop stop-opacity="1" stop-color="rgb(4.855347%, 45.031738%, 41.247559%)" offset="0.6875"/><stop stop-opacity="1" stop-color="rgb(4.754639%, 44.699097%, 41.53595%)" offset="0.704887"/><stop stop-opacity="1" stop-color="rgb(4.704285%, 44.534302%, 41.680908%)" offset="0.71875"/><stop stop-opacity="1" stop-color="rgb(4.653931%, 44.367981%, 41.824341%)" offset="0.75"/><stop stop-opacity="1" stop-color="rgb(4.553223%, 44.036865%, 42.112732%)" offset="0.78125"/><stop stop-opacity="1" stop-color="rgb(4.450989%, 43.70575%, 42.401123%)" offset="0.8125"/><stop stop-opacity="1" stop-color="rgb(4.350281%, 43.373108%, 42.687988%)" offset="0.84375"/><stop stop-opacity="1" stop-color="rgb(4.249573%, 43.041992%, 42.976379%)" offset="0.875"/><stop stop-opacity="1" stop-color="rgb(4.148865%, 42.710876%, 43.264771%)" offset="0.90625"/><stop stop-opacity="1" stop-color="rgb(4.046631%, 42.379761%, 43.553162%)" offset="0.9375"/><stop stop-opacity="1" stop-color="rgb(3.95813%, 42.085266%, 43.807983%)" offset="1"/></linearGradient><clipPath id="125d701836"><path d="M 197 198 L 227 198 L 227 243 L 197 243 Z M 197 198 " clip-rule="nonzero"/></clipPath><clipPath id="4fdfb2b381"><path d="M 197.441406 242.777344 C 203.109375 239.148438 209.496094 232.328125 210.746094 226.660156 C 211.265625 224.28125 211.441406 221.789062 211.289062 219.496094 C 212.214844 218.375 214 215.742188 215.246094 210.949219 C 215.527344 211.023438 215.871094 211.085938 216.230469 211.085938 C 217.140625 211.085938 218.195312 210.703125 218.804688 209.183594 C 219.996094 206.214844 220.953125 198.25 223.242188 198.25 C 223.320312 198.25 223.40625 198.257812 223.488281 198.28125 C 224.824219 198.597656 225.925781 201.527344 226.667969 204.152344 C 225.664062 208.800781 224.367188 213.171875 222.90625 216.304688 C 220.105469 222.300781 212.582031 238.144531 197.449219 242.785156 Z M 197.441406 242.777344 " clip-rule="nonzero"/></clipPath><linearGradient x1="164.941605" gradientTransform="matrix(0.854938, 0, 0, 0.858645, 86.011705, 32.339239)" y1="193.454048" x2="135.496911" gradientUnits="userSpaceOnUse" y2="247.882901" id="28337f0c1d"><stop stop-opacity="1" stop-color="rgb(39.219666%, 23.139954%, 54.508972%)" offset="0"/><stop stop-opacity="1" stop-color="rgb(39.219666%, 23.139954%, 54.508972%)" offset="0.125"/><stop stop-opacity="1" stop-color="rgb(39.028931%, 23.08197%, 54.393005%)" offset="0.140625"/><stop stop-opacity="1" stop-color="rgb(38.70697%, 22.982788%, 54.196167%)" offset="0.148437"/><stop stop-opacity="1" stop-color="rgb(38.441467%, 22.900391%, 54.034424%)" offset="0.15625"/><stop stop-opacity="1" stop-color="rgb(38.175964%, 22.819519%, 53.872681%)" offset="0.164062"/><stop stop-opacity="1" stop-color="rgb(37.910461%, 22.738647%, 53.710938%)" offset="0.171875"/><stop stop-opacity="1" stop-color="rgb(37.644958%, 22.657776%, 53.549194%)" offset="0.179688"/><stop stop-opacity="1" stop-color="rgb(37.380981%, 22.576904%, 53.387451%)" offset="0.1875"/><stop stop-opacity="1" stop-color="rgb(37.115479%, 22.496033%, 53.225708%)" offset="0.195312"/><stop stop-opacity="1" stop-color="rgb(36.849976%, 22.415161%, 53.063965%)" offset="0.203125"/><stop stop-opacity="1" stop-color="rgb(36.584473%, 22.33429%, 52.902222%)" offset="0.210938"/><stop stop-opacity="1" stop-color="rgb(36.31897%, 22.253418%, 52.740479%)" offset="0.21875"/><stop stop-opacity="1" stop-color="rgb(36.054993%, 22.172546%, 52.578735%)" offset="0.226562"/><stop stop-opacity="1" stop-color="rgb(35.78949%, 22.091675%, 52.416992%)" offset="0.234375"/><stop stop-opacity="1" stop-color="rgb(35.523987%, 22.010803%, 52.255249%)" offset="0.242187"/><stop stop-opacity="1" stop-color="rgb(35.258484%, 21.929932%, 52.093506%)" offset="0.25"/><stop stop-opacity="1" stop-color="rgb(34.994507%, 21.84906%, 51.930237%)" offset="0.257812"/><stop stop-opacity="1" stop-color="rgb(34.729004%, 21.768188%, 51.768494%)" offset="0.262839"/><stop stop-opacity="1" stop-color="rgb(34.596252%, 21.728516%, 51.687622%)" offset="0.265625"/><stop stop-opacity="1" stop-color="rgb(34.463501%, 21.687317%, 51.60675%)" offset="0.273438"/><stop stop-opacity="1" stop-color="rgb(34.197998%, 21.606445%, 51.445007%)" offset="0.28125"/><stop stop-opacity="1" stop-color="rgb(33.932495%, 21.525574%, 51.283264%)" offset="0.289062"/><stop stop-opacity="1" stop-color="rgb(33.668518%, 21.444702%, 51.121521%)" offset="0.296875"/><stop stop-opacity="1" stop-color="rgb(33.403015%, 21.363831%, 50.959778%)" offset="0.304688"/><stop stop-opacity="1" stop-color="rgb(33.137512%, 21.282959%, 50.798035%)" offset="0.3125"/><stop stop-opacity="1" stop-color="rgb(32.872009%, 21.202087%, 50.636292%)" offset="0.320312"/><stop stop-opacity="1" stop-color="rgb(32.606506%, 21.121216%, 50.474548%)" offset="0.328125"/><stop stop-opacity="1" stop-color="rgb(32.342529%, 21.040344%, 50.312805%)" offset="0.335937"/><stop stop-opacity="1" stop-color="rgb(32.077026%, 20.959473%, 50.151062%)" offset="0.34375"/><stop stop-opacity="1" stop-color="rgb(31.811523%, 20.878601%, 49.989319%)" offset="0.351562"/><stop stop-opacity="1" stop-color="rgb(31.546021%, 20.797729%, 49.827576%)" offset="0.359375"/><stop stop-opacity="1" stop-color="rgb(31.282043%, 20.716858%, 49.665833%)" offset="0.367188"/><stop stop-opacity="1" stop-color="rgb(31.016541%, 20.635986%, 49.504089%)" offset="0.375"/><stop stop-opacity="1" stop-color="rgb(30.751038%, 20.555115%, 49.342346%)" offset="0.382812"/><stop stop-opacity="1" stop-color="rgb(30.485535%, 20.474243%, 49.180603%)" offset="0.390625"/><stop stop-opacity="1" stop-color="rgb(30.220032%, 20.393372%, 49.01886%)" offset="0.398438"/><stop stop-opacity="1" stop-color="rgb(29.956055%, 20.3125%, 48.857117%)" offset="0.40625"/><stop stop-opacity="1" stop-color="rgb(29.690552%, 20.231628%, 48.695374%)" offset="0.414062"/><stop stop-opacity="1" stop-color="rgb(29.425049%, 20.150757%, 48.53363%)" offset="0.421875"/><stop stop-opacity="1" stop-color="rgb(29.159546%, 20.069885%, 48.371887%)" offset="0.429687"/><stop stop-opacity="1" stop-color="rgb(28.895569%, 19.989014%, 48.208618%)" offset="0.4375"/><stop stop-opacity="1" stop-color="rgb(28.630066%, 19.908142%, 48.046875%)" offset="0.445312"/><stop stop-opacity="1" stop-color="rgb(28.364563%, 19.827271%, 47.885132%)" offset="0.453125"/><stop stop-opacity="1" stop-color="rgb(28.09906%, 19.746399%, 47.723389%)" offset="0.460938"/><stop stop-opacity="1" stop-color="rgb(27.833557%, 19.665527%, 47.561646%)" offset="0.46875"/><stop stop-opacity="1" stop-color="rgb(27.56958%, 19.584656%, 47.399902%)" offset="0.476562"/><stop stop-opacity="1" stop-color="rgb(27.304077%, 19.503784%, 47.238159%)" offset="0.484375"/><stop stop-opacity="1" stop-color="rgb(27.038574%, 19.422913%, 47.076416%)" offset="0.492187"/><stop stop-opacity="1" stop-color="rgb(26.773071%, 19.342041%, 46.914673%)" offset="0.5"/><stop stop-opacity="1" stop-color="rgb(26.507568%, 19.261169%, 46.75293%)" offset="0.507813"/><stop stop-opacity="1" stop-color="rgb(26.243591%, 19.178772%, 46.591187%)" offset="0.515625"/><stop stop-opacity="1" stop-color="rgb(25.978088%, 19.0979%, 46.429443%)" offset="0.523438"/><stop stop-opacity="1" stop-color="rgb(25.712585%, 19.017029%, 46.2677%)" offset="0.53125"/><stop stop-opacity="1" stop-color="rgb(25.447083%, 18.936157%, 46.105957%)" offset="0.539062"/><stop stop-opacity="1" stop-color="rgb(25.183105%, 18.855286%, 45.944214%)" offset="0.546875"/><stop stop-opacity="1" stop-color="rgb(24.917603%, 18.774414%, 45.782471%)" offset="0.554688"/><stop stop-opacity="1" stop-color="rgb(24.6521%, 18.693542%, 45.620728%)" offset="0.5625"/><stop stop-opacity="1" stop-color="rgb(24.386597%, 18.612671%, 45.458984%)" offset="0.570312"/><stop stop-opacity="1" stop-color="rgb(24.121094%, 18.531799%, 45.297241%)" offset="0.578125"/><stop stop-opacity="1" stop-color="rgb(23.857117%, 18.450928%, 45.135498%)" offset="0.585937"/><stop stop-opacity="1" stop-color="rgb(23.591614%, 18.370056%, 44.973755%)" offset="0.59375"/><stop stop-opacity="1" stop-color="rgb(23.326111%, 18.289185%, 44.812012%)" offset="0.601563"/><stop stop-opacity="1" stop-color="rgb(23.060608%, 18.208313%, 44.650269%)" offset="0.609375"/><stop stop-opacity="1" stop-color="rgb(22.795105%, 18.127441%, 44.487%)" offset="0.617188"/><stop stop-opacity="1" stop-color="rgb(22.531128%, 18.04657%, 44.325256%)" offset="0.625"/><stop stop-opacity="1" stop-color="rgb(22.265625%, 17.965698%, 44.163513%)" offset="0.632812"/><stop stop-opacity="1" stop-color="rgb(22.000122%, 17.884827%, 44.00177%)" offset="0.640625"/><stop stop-opacity="1" stop-color="rgb(21.734619%, 17.803955%, 43.840027%)" offset="0.648438"/><stop stop-opacity="1" stop-color="rgb(21.470642%, 17.723083%, 43.678284%)" offset="0.65625"/><stop stop-opacity="1" stop-color="rgb(21.205139%, 17.642212%, 43.516541%)" offset="0.664062"/><stop stop-opacity="1" stop-color="rgb(20.939636%, 17.56134%, 43.354797%)" offset="0.671875"/><stop stop-opacity="1" stop-color="rgb(20.674133%, 17.480469%, 43.193054%)" offset="0.679687"/><stop stop-opacity="1" stop-color="rgb(20.40863%, 17.399597%, 43.031311%)" offset="0.6875"/><stop stop-opacity="1" stop-color="rgb(20.144653%, 17.318726%, 42.869568%)" offset="0.695312"/><stop stop-opacity="1" stop-color="rgb(19.87915%, 17.237854%, 42.707825%)" offset="0.703125"/><stop stop-opacity="1" stop-color="rgb(19.613647%, 17.156982%, 42.546082%)" offset="0.710938"/><stop stop-opacity="1" stop-color="rgb(19.348145%, 17.076111%, 42.384338%)" offset="0.71875"/><stop stop-opacity="1" stop-color="rgb(19.082642%, 16.995239%, 42.222595%)" offset="0.726562"/><stop stop-opacity="1" stop-color="rgb(18.818665%, 16.914368%, 42.060852%)" offset="0.734375"/><stop stop-opacity="1" stop-color="rgb(18.553162%, 16.833496%, 41.899109%)" offset="0.737161"/><stop stop-opacity="1" stop-color="rgb(18.42041%, 16.793823%, 41.818237%)" offset="0.742188"/><stop stop-opacity="1" stop-color="rgb(18.287659%, 16.752625%, 41.737366%)" offset="0.75"/><stop stop-opacity="1" stop-color="rgb(18.022156%, 16.671753%, 41.575623%)" offset="0.757812"/><stop stop-opacity="1" stop-color="rgb(17.758179%, 16.590881%, 41.413879%)" offset="0.765625"/><stop stop-opacity="1" stop-color="rgb(17.492676%, 16.51001%, 41.252136%)" offset="0.773437"/><stop stop-opacity="1" stop-color="rgb(17.227173%, 16.429138%, 41.090393%)" offset="0.78125"/><stop stop-opacity="1" stop-color="rgb(16.96167%, 16.348267%, 40.92865%)" offset="0.789062"/><stop stop-opacity="1" stop-color="rgb(16.696167%, 16.267395%, 40.765381%)" offset="0.796875"/><stop stop-opacity="1" stop-color="rgb(16.43219%, 16.186523%, 40.603638%)" offset="0.804688"/><stop stop-opacity="1" stop-color="rgb(16.189575%, 16.113281%, 40.455627%)" offset="0.8125"/><stop stop-opacity="1" stop-color="rgb(16.079712%, 16.079712%, 40.388489%)" offset="0.875"/><stop stop-opacity="1" stop-color="rgb(16.079712%, 16.079712%, 40.388489%)" offset="1"/></linearGradient><clipPath id="3aba4212a8"><path d="M 182 210 L 212 210 L 212 245 L 182 245 Z M 182 210 " clip-rule="nonzero"/></clipPath><clipPath id="d43b244ff6"><path d="M 188.632812 244.082031 C 188.101562 244.082031 187.566406 244.066406 187.015625 244.042969 C 185.355469 243.960938 183.753906 243.820312 182.1875 243.636719 C 185.664062 242.316406 192.386719 239.1875 195.96875 233.609375 C 200.9375 225.871094 200.59375 219.265625 200.792969 216.179688 C 200.792969 216.179688 201.269531 210.296875 205.691406 210.296875 C 205.757812 210.296875 205.835938 210.296875 205.90625 210.304688 C 209.074219 210.433594 210.9375 214.515625 211.273438 219.496094 C 211.425781 221.789062 211.257812 224.28125 210.730469 226.660156 C 209.488281 232.328125 203.09375 239.148438 197.425781 242.777344 C 194.738281 243.605469 191.804688 244.082031 188.617188 244.082031 Z M 188.632812 244.082031 " clip-rule="nonzero"/></clipPath><linearGradient x1="145.606388" gradientTransform="matrix(0.854938, 0, 0, 0.858645, 86.011705, 32.339239)" y1="206.661745" x2="121.278848" gradientUnits="userSpaceOnUse" y2="251.380078" id="aec4b429a0"><stop stop-opacity="1" stop-color="rgb(0%, 29.019165%, 51.368713%)" offset="0"/><stop stop-opacity="1" stop-color="rgb(0%, 29.019165%, 51.350403%)" offset="0.125"/><stop stop-opacity="1" stop-color="rgb(0%, 29.019165%, 51.231384%)" offset="0.1875"/><stop stop-opacity="1" stop-color="rgb(0%, 29.019165%, 51.029968%)" offset="0.25"/><stop stop-opacity="1" stop-color="rgb(0%, 29.019165%, 50.828552%)" offset="0.3125"/><stop stop-opacity="1" stop-color="rgb(0%, 29.019165%, 50.627136%)" offset="0.321052"/><stop stop-opacity="1" stop-color="rgb(0%, 29.019165%, 50.526428%)" offset="0.375"/><stop stop-opacity="1" stop-color="rgb(0%, 29.019165%, 50.42572%)" offset="0.4375"/><stop stop-opacity="1" stop-color="rgb(0%, 29.019165%, 50.224304%)" offset="0.5"/><stop stop-opacity="1" stop-color="rgb(0%, 29.019165%, 50.022888%)" offset="0.5625"/><stop stop-opacity="1" stop-color="rgb(0%, 29.019165%, 49.821472%)" offset="0.625"/><stop stop-opacity="1" stop-color="rgb(0%, 29.019165%, 49.620056%)" offset="0.678948"/><stop stop-opacity="1" stop-color="rgb(0%, 29.019165%, 49.519348%)" offset="0.6875"/><stop stop-opacity="1" stop-color="rgb(0%, 29.019165%, 49.41864%)" offset="0.75"/><stop stop-opacity="1" stop-color="rgb(0%, 29.019165%, 49.217224%)" offset="0.8125"/><stop stop-opacity="1" stop-color="rgb(0%, 29.019165%, 49.015808%)" offset="0.875"/><stop stop-opacity="1" stop-color="rgb(0%, 29.019165%, 48.771667%)" offset="1"/></linearGradient><clipPath id="4221e6d5ad"><path d="M 124 207 L 193 207 L 193 242 L 124 242 Z M 124 207 " clip-rule="nonzero"/></clipPath><clipPath id="3084620c2e"><path d="M 192.460938 208.277344 Z M 169.980469 241.128906 C 157.738281 237.453125 149.929688 231.402344 146.644531 228.890625 C 142.0625 225.394531 124.792969 209.375 124.53125 209.136719 C 124.5 208.746094 124.5625 207.886719 125.824219 207.886719 C 126.015625 207.886719 126.226562 207.902344 126.472656 207.949219 C 128.839844 208.363281 134.953125 212.828125 138.097656 215.214844 C 141.007812 217.414062 145.363281 220.667969 149.28125 220.667969 C 149.609375 220.667969 149.929688 220.644531 150.25 220.601562 C 154.414062 219.976562 154.152344 217.109375 153.664062 215.835938 C 153.207031 214.644531 152.429688 212.4375 150.695312 210.203125 C 152.902344 211 157.445312 212.351562 163.007812 212.351562 C 163.3125 212.351562 163.625 212.34375 163.9375 212.335938 C 172.296875 212.105469 180.0625 208.453125 180.0625 208.453125 C 180.0625 208.453125 182.300781 210.21875 186.082031 210.21875 C 186.722656 210.21875 187.40625 210.167969 188.128906 210.050781 C 190.007812 209.742188 191.421875 209.128906 192.46875 208.277344 C 188.808594 211.9375 186.714844 227.78125 182.570312 234.785156 C 179.519531 239.9375 173.144531 240.953125 169.988281 241.128906 Z M 169.980469 241.128906 " clip-rule="nonzero"/></clipPath><linearGradient x1="84.823177" gradientTransform="matrix(0.854938, 0, 0, 0.858645, 86.011705, 32.339239)" y1="203.55396" x2="83.911461" gradientUnits="userSpaceOnUse" y2="244.036829" id="56f75bbb5e"><stop stop-opacity="1" stop-color="rgb(11.653137%, 62.129211%, 0%)" offset="0"/><stop stop-opacity="1" stop-color="rgb(11.462402%, 62.030029%, 0%)" offset="0.03125"/><stop stop-opacity="1" stop-color="rgb(11.080933%, 61.833191%, 0%)" offset="0.0442037"/><stop stop-opacity="1" stop-color="rgb(10.890198%, 61.734009%, 0%)" offset="0.0625"/><stop stop-opacity="1" stop-color="rgb(10.699463%, 61.634827%, 0%)" offset="0.09375"/><stop stop-opacity="1" stop-color="rgb(10.319519%, 61.436462%, 0%)" offset="0.125"/><stop stop-opacity="1" stop-color="rgb(9.938049%, 61.239624%, 0%)" offset="0.15625"/><stop stop-opacity="1" stop-color="rgb(9.55658%, 61.04126%, 0%)" offset="0.1875"/><stop stop-opacity="1" stop-color="rgb(9.17511%, 60.842896%, 0%)" offset="0.21875"/><stop stop-opacity="1" stop-color="rgb(8.795166%, 60.646057%, 0%)" offset="0.25"/><stop stop-opacity="1" stop-color="rgb(8.413696%, 60.447693%, 0%)" offset="0.28125"/><stop stop-opacity="1" stop-color="rgb(8.032227%, 60.249329%, 0%)" offset="0.3125"/><stop stop-opacity="1" stop-color="rgb(7.652283%, 60.05249%, 0%)" offset="0.34375"/><stop stop-opacity="1" stop-color="rgb(7.270813%, 59.854126%, 0%)" offset="0.375"/><stop stop-opacity="1" stop-color="rgb(6.889343%, 59.657288%, 0%)" offset="0.40625"/><stop stop-opacity="1" stop-color="rgb(6.507874%, 59.458923%, 0%)" offset="0.4375"/><stop stop-opacity="1" stop-color="rgb(6.12793%, 59.260559%, 0%)" offset="0.46875"/><stop stop-opacity="1" stop-color="rgb(5.74646%, 59.063721%, 0%)" offset="0.5"/><stop stop-opacity="1" stop-color="rgb(5.36499%, 58.865356%, 0%)" offset="0.53125"/><stop stop-opacity="1" stop-color="rgb(4.985046%, 58.666992%, 0%)" offset="0.5625"/><stop stop-opacity="1" stop-color="rgb(4.603577%, 58.470154%, 0%)" offset="0.59375"/><stop stop-opacity="1" stop-color="rgb(4.222107%, 58.27179%, 0%)" offset="0.625"/><stop stop-opacity="1" stop-color="rgb(3.840637%, 58.073425%, 0%)" offset="0.65625"/><stop stop-opacity="1" stop-color="rgb(3.460693%, 57.876587%, 0%)" offset="0.6875"/><stop stop-opacity="1" stop-color="rgb(3.079224%, 57.678223%, 0%)" offset="0.71875"/><stop stop-opacity="1" stop-color="rgb(2.697754%, 57.479858%, 0%)" offset="0.75"/><stop stop-opacity="1" stop-color="rgb(2.31781%, 57.28302%, 0%)" offset="0.78125"/><stop stop-opacity="1" stop-color="rgb(1.93634%, 57.084656%, 0%)" offset="0.8125"/><stop stop-opacity="1" stop-color="rgb(1.554871%, 56.886292%, 0%)" offset="0.84375"/><stop stop-opacity="1" stop-color="rgb(1.173401%, 56.689453%, 0%)" offset="0.875"/><stop stop-opacity="1" stop-color="rgb(0.793457%, 56.491089%, 0%)" offset="0.90625"/><stop stop-opacity="1" stop-color="rgb(0.411987%, 56.292725%, 0%)" offset="0.9375"/><stop stop-opacity="1" stop-color="rgb(0.109863%, 56.137085%, 0%)" offset="0.955796"/><stop stop-opacity="1" stop-color="rgb(0%, 56.079102%, 0%)" offset="1"/></linearGradient><clipPath id="a0b165a4b4"><path d="M 141 147 L 203 147 L 203 210 L 141 210 Z M 141 147 " clip-rule="nonzero"/></clipPath><clipPath id="3a566ae72d"><path d="M 199.359375 209.757812 C 198.28125 208.09375 196.746094 207.050781 195.195312 207.050781 C 194.394531 207.050781 193.585938 207.335938 192.828125 207.949219 C 194.308594 206.53125 194.960938 204.558594 195.109375 202.257812 C 195.371094 198.273438 193.746094 193.640625 192.773438 192.980469 C 192.773438 192.980469 197.914062 189.261719 192.84375 186.238281 C 192.894531 185.664062 192.902344 185.082031 192.875 184.519531 C 192.699219 181.28125 190.09375 178.550781 186.894531 178.222656 C 186.550781 178.183594 186.214844 178.167969 185.890625 178.167969 C 182.011719 178.167969 179.742188 180.507812 179.742188 180.507812 C 179.707031 178.679688 179.691406 177.085938 178.726562 175.476562 C 177.925781 174.117188 176.671875 172.972656 175.167969 172.476562 C 174.496094 172.253906 173.746094 172.136719 172.976562 172.136719 C 170.578125 172.136719 168.027344 173.25 167.222656 175.574219 C 166.324219 178.207031 163.742188 180.070312 160.128906 180.070312 C 158.539062 180.070312 156.757812 179.710938 154.828125 178.90625 C 152.09375 177.761719 149.953125 176.773438 148.128906 175.484375 C 146.621094 172.308594 145.234375 168.195312 144.636719 166.144531 C 144.109375 164.335938 143.324219 159.632812 142.742188 155.707031 C 143.085938 155.160156 143.332031 154.855469 143.332031 154.855469 C 143.332031 154.855469 143.0625 154.886719 142.636719 154.992188 C 142.292969 152.636719 142.046875 150.65625 141.992188 149.921875 C 141.917969 148.777344 142.132812 147.671875 142.445312 147.671875 C 142.671875 147.671875 142.964844 148.289062 143.230469 149.960938 C 143.851562 153.878906 145.179688 156.585938 147.097656 162.824219 C 149 169 154.40625 170.757812 156.78125 170.757812 C 156.804688 170.757812 156.828125 170.757812 156.84375 170.757812 C 159.1875 170.726562 162.304688 168.570312 163.113281 165.011719 C 163.910156 161.527344 163.742188 154.132812 168.1875 154.132812 C 168.277344 154.132812 168.378906 154.132812 168.476562 154.140625 C 173.21875 154.460938 176.054688 164.519531 177.253906 167.558594 C 178.222656 170.011719 180.171875 173.144531 183.019531 173.144531 C 183.699219 173.144531 184.433594 172.964844 185.21875 172.550781 C 188.265625 170.957031 188.589844 167.375 187.769531 163.960938 C 189.742188 164.894531 195.195312 167.996094 197.769531 174.707031 C 199.519531 179.28125 201.136719 183.078125 202.933594 185.523438 C 203.230469 196.042969 200.457031 206.160156 199.351562 209.757812 Z M 199.359375 209.757812 " clip-rule="nonzero"/></clipPath><linearGradient x1="101.701081" gradientTransform="matrix(0.854938, 0, 0, 0.858645, 86.011705, 32.339239)" y1="133.52355" x2="100.037121" gradientUnits="userSpaceOnUse" y2="207.408236" id="ecbd1e8c56"><stop stop-opacity="1" stop-color="rgb(30.198669%, 71.759033%, 0%)" offset="0"/><stop stop-opacity="1" stop-color="rgb(30.133057%, 71.723938%, 0%)" offset="0.0218493"/><stop stop-opacity="1" stop-color="rgb(30.067444%, 71.690369%, 0%)" offset="0.125"/><stop stop-opacity="1" stop-color="rgb(29.893494%, 71.600342%, 0%)" offset="0.140625"/><stop stop-opacity="1" stop-color="rgb(29.545593%, 71.420288%, 0%)" offset="0.15625"/><stop stop-opacity="1" stop-color="rgb(29.197693%, 71.238708%, 0%)" offset="0.171875"/><stop stop-opacity="1" stop-color="rgb(28.849792%, 71.058655%, 0%)" offset="0.1875"/><stop stop-opacity="1" stop-color="rgb(28.501892%, 70.878601%, 0%)" offset="0.203125"/><stop stop-opacity="1" stop-color="rgb(28.153992%, 70.697021%, 0%)" offset="0.21875"/><stop stop-opacity="1" stop-color="rgb(27.806091%, 70.516968%, 0%)" offset="0.234375"/><stop stop-opacity="1" stop-color="rgb(27.459717%, 70.336914%, 0%)" offset="0.25"/><stop stop-opacity="1" stop-color="rgb(27.111816%, 70.155334%, 0%)" offset="0.265625"/><stop stop-opacity="1" stop-color="rgb(26.763916%, 69.975281%, 0%)" offset="0.28125"/><stop stop-opacity="1" stop-color="rgb(26.416016%, 69.795227%, 0%)" offset="0.296875"/><stop stop-opacity="1" stop-color="rgb(26.068115%, 69.613647%, 0%)" offset="0.3125"/><stop stop-opacity="1" stop-color="rgb(25.720215%, 69.433594%, 0%)" offset="0.328125"/><stop stop-opacity="1" stop-color="rgb(25.372314%, 69.25354%, 0%)" offset="0.34375"/><stop stop-opacity="1" stop-color="rgb(25.024414%, 69.07196%, 0%)" offset="0.359375"/><stop stop-opacity="1" stop-color="rgb(24.67804%, 68.891907%, 0%)" offset="0.375"/><stop stop-opacity="1" stop-color="rgb(24.330139%, 68.711853%, 0%)" offset="0.390625"/><stop stop-opacity="1" stop-color="rgb(23.982239%, 68.530273%, 0%)" offset="0.40625"/><stop stop-opacity="1" stop-color="rgb(23.634338%, 68.35022%, 0%)" offset="0.421875"/><stop stop-opacity="1" stop-color="rgb(23.286438%, 68.170166%, 0%)" offset="0.4375"/><stop stop-opacity="1" stop-color="rgb(22.938538%, 67.990112%, 0%)" offset="0.453125"/><stop stop-opacity="1" stop-color="rgb(22.590637%, 67.808533%, 0%)" offset="0.46875"/><stop stop-opacity="1" stop-color="rgb(22.242737%, 67.628479%, 0%)" offset="0.484375"/><stop stop-opacity="1" stop-color="rgb(21.896362%, 67.448425%, 0%)" offset="0.5"/><stop stop-opacity="1" stop-color="rgb(21.548462%, 67.266846%, 0%)" offset="0.515625"/><stop stop-opacity="1" stop-color="rgb(21.200562%, 67.086792%, 0%)" offset="0.53125"/><stop stop-opacity="1" stop-color="rgb(20.852661%, 66.906738%, 0%)" offset="0.546875"/><stop stop-opacity="1" stop-color="rgb(20.504761%, 66.725159%, 0%)" offset="0.5625"/><stop stop-opacity="1" stop-color="rgb(20.15686%, 66.545105%, 0%)" offset="0.578125"/><stop stop-opacity="1" stop-color="rgb(19.80896%, 66.365051%, 0%)" offset="0.59375"/><stop stop-opacity="1" stop-color="rgb(19.46106%, 66.183472%, 0%)" offset="0.609375"/><stop stop-opacity="1" stop-color="rgb(19.114685%, 66.003418%, 0%)" offset="0.625"/><stop stop-opacity="1" stop-color="rgb(18.766785%, 65.823364%, 0%)" offset="0.640625"/><stop stop-opacity="1" stop-color="rgb(18.418884%, 65.641785%, 0%)" offset="0.65625"/><stop stop-opacity="1" stop-color="rgb(18.070984%, 65.461731%, 0%)" offset="0.671875"/><stop stop-opacity="1" stop-color="rgb(17.723083%, 65.281677%, 0%)" offset="0.6875"/><stop stop-opacity="1" stop-color="rgb(17.375183%, 65.101624%, 0%)" offset="0.703125"/><stop stop-opacity="1" stop-color="rgb(17.027283%, 64.920044%, 0%)" offset="0.71875"/><stop stop-opacity="1" stop-color="rgb(16.679382%, 64.73999%, 0%)" offset="0.734375"/><stop stop-opacity="1" stop-color="rgb(16.333008%, 64.559937%, 0%)" offset="0.75"/><stop stop-opacity="1" stop-color="rgb(15.985107%, 64.378357%, 0%)" offset="0.765625"/><stop stop-opacity="1" stop-color="rgb(15.637207%, 64.198303%, 0%)" offset="0.78125"/><stop stop-opacity="1" stop-color="rgb(15.289307%, 64.01825%, 0%)" offset="0.796875"/><stop stop-opacity="1" stop-color="rgb(14.941406%, 63.83667%, 0%)" offset="0.8125"/><stop stop-opacity="1" stop-color="rgb(14.593506%, 63.656616%, 0%)" offset="0.828125"/><stop stop-opacity="1" stop-color="rgb(14.245605%, 63.476562%, 0%)" offset="0.84375"/><stop stop-opacity="1" stop-color="rgb(13.899231%, 63.294983%, 0%)" offset="0.859375"/><stop stop-opacity="1" stop-color="rgb(13.551331%, 63.114929%, 0%)" offset="0.875"/><stop stop-opacity="1" stop-color="rgb(13.20343%, 62.934875%, 0%)" offset="0.890625"/><stop stop-opacity="1" stop-color="rgb(12.85553%, 62.753296%, 0%)" offset="0.90625"/><stop stop-opacity="1" stop-color="rgb(12.507629%, 62.573242%, 0%)" offset="0.921875"/><stop stop-opacity="1" stop-color="rgb(12.159729%, 62.393188%, 0%)" offset="0.9375"/><stop stop-opacity="1" stop-color="rgb(11.811829%, 62.213135%, 0%)" offset="0.953125"/><stop stop-opacity="1" stop-color="rgb(11.463928%, 62.031555%, 0%)" offset="0.96875"/><stop stop-opacity="1" stop-color="rgb(11.117554%, 61.851501%, 0%)" offset="0.978151"/><stop stop-opacity="1" stop-color="rgb(10.943604%, 61.761475%, 0%)" offset="0.984375"/><stop stop-opacity="1" stop-color="rgb(10.769653%, 61.671448%, 0%)" offset="1"/></linearGradient><clipPath id="479ebdd8ec"><path d="M 292.800781 293.527344 L 303.5 293.527344 L 303.5 304.203125 L 292.800781 304.203125 Z M 292.800781 293.527344 " clip-rule="nonzero"/></clipPath><clipPath id="939e92ce08"><path d="M 298.148438 293.527344 C 295.195312 293.527344 292.800781 295.917969 292.800781 298.867188 C 292.800781 301.8125 295.195312 304.203125 298.148438 304.203125 C 301.105469 304.203125 303.5 301.8125 303.5 298.867188 C 303.5 295.917969 301.105469 293.527344 298.148438 293.527344 Z M 298.148438 293.527344 " clip-rule="nonzero"/></clipPath><clipPath id="b888f3c5e0"><path d="M 298.148438 293.527344 C 295.195312 293.527344 292.800781 295.917969 292.800781 298.867188 C 292.800781 301.8125 295.195312 304.203125 298.148438 304.203125 C 301.105469 304.203125 303.5 301.8125 303.5 298.867188 C 303.5 295.917969 301.105469 293.527344 298.148438 293.527344 Z M 298.148438 293.527344 " clip-rule="nonzero"/></clipPath><clipPath id="1ab8bf3865"><path d="M 319.496094 293.527344 L 330.199219 293.527344 L 330.199219 304.203125 L 319.496094 304.203125 Z M 319.496094 293.527344 " clip-rule="nonzero"/></clipPath><clipPath id="a3924128e6"><path d="M 324.847656 293.527344 C 321.894531 293.527344 319.496094 295.917969 319.496094 298.867188 C 319.496094 301.8125 321.894531 304.203125 324.847656 304.203125 C 327.804688 304.203125 330.199219 301.8125 330.199219 298.867188 C 330.199219 295.917969 327.804688 293.527344 324.847656 293.527344 Z M 324.847656 293.527344 " clip-rule="nonzero"/></clipPath><clipPath id="38a81709fe"><path d="M 324.847656 293.527344 C 321.894531 293.527344 319.496094 295.917969 319.496094 298.867188 C 319.496094 301.8125 321.894531 304.203125 324.847656 304.203125 C 327.804688 304.203125 330.199219 301.8125 330.199219 298.867188 C 330.199219 295.917969 327.804688 293.527344 324.847656 293.527344 Z M 324.847656 293.527344 " clip-rule="nonzero"/></clipPath></defs><path fill="#bad5e0" d="M 91.066406 274.367188 C 90.242188 273.535156 99.226562 271.761719 104.878906 270.617188 C 110.53125 269.476562 187.472656 266.304688 199.757812 267.089844 C 212.039062 267.871094 268.992188 270.617188 272.367188 271.007812 C 275.742188 271.402344 285.175781 272.253906 285.046875 273.816406 C 284.917969 275.382812 274.972656 277.539062 258.066406 278.191406 C 241.164062 278.839844 206.644531 278.648438 199.425781 278.648438 C 192.207031 278.648438 141.175781 278.382812 138.058594 278.679688 C 134.945312 278.980469 95.542969 278.910156 91.0625 274.375 " fill-opacity="1" fill-rule="nonzero"/><path fill="#142749" d="M 192.460938 208.277344 C 188.800781 211.9375 186.707031 227.78125 182.5625 234.785156 C 179.515625 239.9375 173.136719 240.953125 169.980469 241.128906 C 157.738281 237.453125 149.929688 231.402344 146.644531 228.890625 C 142.0625 225.394531 124.792969 209.375 124.53125 209.136719 C 124.539062 209.253906 124.5625 209.328125 124.5625 209.328125 C 124.5625 209.328125 124.546875 209.253906 124.53125 209.136719 C 124.53125 209.136719 124.515625 209.128906 124.515625 209.128906 C 124.273438 210.011719 124.816406 211.109375 125.175781 211.882812 C 127.671875 217.324219 131.949219 222.203125 135.898438 226.613281 C 138.386719 229.390625 140.96875 231.921875 143.949219 234.171875 C 146.820312 236.332031 149.746094 238.449219 152.390625 240.898438 C 156.230469 244.449219 160.171875 248.171875 163.671875 252.167969 C 161.195312 250.671875 157.828125 248.667969 154.238281 246.652344 C 147.019531 242.601562 119.78125 226.34375 109.835938 216.097656 C 103.433594 209.507812 100.96875 205.671875 100.019531 203.769531 C 100.753906 202.632812 101.6875 201.511719 102.777344 200.363281 C 107.894531 194.976562 121.84375 194.292969 132.859375 199.972656 C 137.402344 202.3125 141.957031 203.820312 146.386719 204.796875 C 147.636719 206.421875 149.226562 208.453125 150.296875 209.726562 C 150.433594 209.890625 150.550781 210.042969 150.671875 210.203125 C 153 211.046875 157.933594 212.507812 163.917969 212.34375 C 172.273438 212.113281 180.042969 208.460938 180.042969 208.460938 C 180.042969 208.460938 183.097656 210.878906 188.101562 210.058594 C 189.976562 209.75 191.390625 209.136719 192.4375 208.277344 M 273.152344 222.363281 C 279.59375 212.113281 284.335938 203.691406 283.425781 195.335938 C 282.519531 186.984375 278.683594 176.59375 263.46875 176.140625 C 248.253906 175.691406 236.878906 186.722656 236.878906 186.722656 C 236.878906 186.722656 238.175781 184.042969 234.601562 170.136719 C 231.027344 156.226562 224.976562 147.542969 224.976562 147.542969 C 236.613281 136.703125 241.84375 125.496094 246.335938 113.050781 C 250.828125 100.609375 250.871094 93.464844 250.773438 83.722656 C 250.671875 73.980469 248.480469 65.601562 248.480469 65.601562 C 251.550781 60.070312 251.261719 55.515625 251.261719 55.515625 C 251.261719 55.515625 267.59375 54.777344 275.492188 53.503906 C 283.390625 52.230469 285.046875 47.382812 285.046875 44.253906 C 285.046875 41.125 282.710938 37.058594 276.078125 36.566406 C 269.449219 36.074219 245.898438 38.375 245.898438 38.375 C 241.070312 34.117188 233.617188 37.347656 233.617188 37.347656 C 224.128906 34.535156 221.089844 42.933594 221.089844 42.933594 C 213.871094 42.488281 203.4375 46.164062 203.4375 46.164062 C 203.4375 46.164062 200.167969 41.90625 193.445312 41.90625 C 186.722656 41.90625 182.867188 44.796875 180.042969 46.898438 C 177.214844 49 169.546875 49.984375 169.546875 49.984375 C 169.546875 49.984375 169.933594 50.230469 175.007812 54.734375 C 180.078125 59.234375 184.609375 61.835938 191.683594 61.835938 C 198.753906 61.835938 202.878906 57.832031 202.878906 57.832031 C 210.679688 58.945312 221.144531 57.832031 221.144531 57.832031 C 221.144531 57.832031 225.175781 60.902344 225.566406 74.085938 C 225.957031 87.273438 219.066406 99.609375 219.066406 99.617188 C 219.292969 99.210938 218.9375 97.839844 218.882812 97.371094 C 218.796875 96.621094 218.683594 95.875 218.546875 95.136719 C 218.273438 93.710938 217.890625 92.300781 217.363281 90.949219 C 216.390625 88.433594 214.980469 86.109375 213.292969 84.015625 C 211.664062 81.996094 209.785156 79.972656 207.433594 78.8125 C 206.117188 78.167969 204.78125 77.578125 203.421875 77.035156 C 203.421875 77.035156 204.285156 64.070312 190.132812 62.050781 C 176.414062 60.09375 170.660156 70.460938 170.660156 70.460938 C 156.179688 71.441406 145.109375 78.980469 145.109375 78.980469 C 144.949219 78.914062 144.789062 78.84375 144.628906 78.78125 C 141.972656 77.703125 139.167969 76.886719 136.339844 76.398438 C 132.246094 75.683594 128.054688 76.042969 124.234375 77.738281 C 117.152344 80.878906 110.722656 86.636719 110.363281 94.894531 C 109.941406 104.75 112.507812 107.367188 112.507812 107.367188 C 111.308594 110.304688 110.621094 119.902344 112.539062 127.863281 C 114.457031 135.828125 120.308594 143.207031 120.308594 143.207031 C 120.308594 143.207031 117.351562 145.164062 113.738281 151.601562 C 110.125 158.039062 108.4375 161.527344 108.214844 170.601562 C 107.996094 179.679688 116.605469 188.984375 116.605469 188.984375 C 116.605469 188.984375 108.117188 187.773438 101.527344 191.402344 C 94.933594 195.03125 89.730469 201.734375 89.832031 209.40625 C 89.929688 217.078125 94.054688 223.765625 98.117188 228.277344 C 102.183594 232.789062 114.894531 242.480469 117.78125 244.171875 C 120.667969 245.871094 136.082031 254.683594 136.082031 254.683594 C 134.683594 255.238281 117.070312 255.664062 115.34375 255.597656 C 113.617188 255.527344 105.199219 254.976562 102.894531 257.460938 C 100.585938 259.945312 103.671875 263.699219 103.671875 263.699219 C 103.671875 263.699219 99.289062 265.953125 101.265625 270.554688 C 103.242188 275.160156 105.199219 274.867188 107.308594 275.027344 C 109.414062 275.191406 117.640625 271.898438 117.640625 271.898438 C 117.582031 274.375 118.191406 278.65625 125.480469 278.949219 C 132.765625 279.242188 139.390625 275.980469 148.523438 275.257812 C 157.660156 274.539062 165.71875 274.507812 171.339844 274.214844 C 176.960938 273.925781 182.324219 272.84375 182.035156 266.574219 C 181.746094 260.308594 170.101562 250.972656 170.101562 250.972656 C 170.101562 250.972656 178.261719 253.15625 189.246094 252.925781 C 200.230469 252.695312 211.222656 246.820312 211.222656 246.820312 C 211.222656 246.820312 204.558594 253.058594 200.6875 258.210938 C 196.816406 263.367188 195.355469 265.164062 197.175781 270.128906 C 198.992188 275.089844 207.636719 274.339844 210.855469 274.269531 C 214.070312 274.199219 225.453125 274.890625 230.683594 275.472656 C 235.914062 276.058594 243.585938 278.871094 251.324219 278.933594 C 259.0625 278.996094 258.640625 271.816406 258.640625 271.816406 C 258.640625 271.816406 265.371094 275.082031 269.074219 275.214844 C 272.777344 275.34375 274.988281 272.605469 275.675781 269.238281 C 276.363281 265.871094 272.6875 263.230469 272.6875 263.230469 C 276.78125 259.769531 273.4375 256.441406 270.832031 256.148438 C 268.226562 255.855469 240.4375 254.683594 240.4375 254.683594 C 249.734375 248.347656 266.699219 232.613281 273.136719 222.363281 " fill-opacity="1" fill-rule="nonzero"/><path fill="#ffffff" d="M 232.296875 104.683594 C 237.167969 91.945312 238.144531 85.195312 237.367188 71.289062 C 236.894531 62.832031 235.121094 57.714844 233.808594 54.992188 C 229.875 53.453125 228.109375 52.070312 227.519531 51.210938 C 226.871094 50.269531 226.253906 48.203125 224.367188 49.285156 C 222.480469 50.367188 223.816406 51.863281 225.246094 53.917969 C 226.675781 55.976562 231.15625 61.882812 231.90625 68.703125 C 232.570312 74.792969 234.90625 91.066406 221.832031 111.035156 C 221.066406 117.171875 218.835938 125.933594 218.835938 125.933594 C 218.835938 125.933594 227.414062 117.410156 232.296875 104.683594 " fill-opacity="1" fill-rule="nonzero"/><path fill="#bad5e0" d="M 244.355469 55.613281 C 244.355469 55.613281 239.835938 57.179688 235.03125 55.453125 C 234.59375 55.300781 234.199219 55.148438 233.808594 54.992188 C 235.121094 57.710938 236.894531 62.832031 237.367188 71.289062 C 238.144531 85.195312 237.167969 91.953125 232.296875 104.683594 C 227.421875 117.410156 218.84375 125.933594 218.84375 125.933594 C 218.84375 125.933594 221.074219 117.179688 221.839844 111.035156 C 220.257812 113.449219 218.46875 115.914062 216.40625 118.421875 C 216.40625 118.421875 216.605469 131.285156 220.761719 137.945312 C 220.761719 137.945312 233.832031 124.890625 238.574219 107.460938 C 243.316406 90.03125 244.488281 79.121094 239.421875 64.5 C 239.421875 64.5 245.074219 60.316406 244.363281 55.621094 " fill-opacity="1" fill-rule="nonzero"/><path fill="#eeb935" d="M 199.96875 49.046875 C 196.53125 48.941406 194.707031 51.019531 193.414062 52.476562 C 190.277344 53.519531 187.609375 53.949219 187.609375 53.949219 C 190.222656 52.078125 191.214844 49.324219 191.269531 49.15625 C 190.09375 49.585938 187.375 49.585938 185.707031 49.53125 C 185.863281 49.4375 186.023438 49.347656 186.175781 49.246094 C 188.710938 47.613281 191.542969 46.929688 194.171875 46.863281 C 196.15625 46.816406 198.6875 47.320312 199.96875 49.046875 " fill-opacity="1" fill-rule="nonzero"/><path fill="#51b335" d="M 191.636719 56.621094 C 190.230469 56.644531 188.886719 56.382812 187.640625 55.984375 C 189.238281 55.230469 192.363281 53.671875 193.414062 52.476562 C 194.707031 51.019531 196.53125 48.941406 199.96875 49.046875 C 200.007812 49.101562 200.039062 49.15625 200.078125 49.210938 C 200.4375 49.738281 200.6875 50.375 200.773438 51.140625 C 201.160156 54.5625 197.714844 56.527344 191.636719 56.621094 " fill-opacity="1" fill-rule="nonzero"/><path fill="#e94936" d="M 193.414062 52.476562 C 192.363281 53.671875 189.238281 55.230469 187.640625 55.984375 C 183.5 54.640625 180.523438 51.664062 180.523438 51.664062 C 181.195312 51.757812 183.347656 50.972656 185.707031 49.53125 C 187.375 49.585938 190.09375 49.585938 191.269531 49.15625 C 191.214844 49.324219 190.222656 52.078125 187.609375 53.949219 C 187.609375 53.949219 190.277344 53.519531 193.414062 52.476562 " fill-opacity="1" fill-rule="nonzero"/><path fill="#ffffff" d="M 221.890625 46.863281 C 221.890625 46.863281 210.480469 48.210938 206.617188 49.039062 L 206.746094 50.214844 L 220.738281 48.75 C 220.953125 48.011719 221.304688 47.328125 221.890625 46.863281 " fill-opacity="1" fill-rule="nonzero"/><path fill="#51b335" d="M 206.746094 50.214844 L 207.074219 53.289062 L 220.5625 52.476562 C 220.5625 52.476562 220.242188 50.476562 220.738281 48.75 Z M 206.746094 50.214844 " fill-opacity="1" fill-rule="nonzero"/><path fill="#ffffff" d="M 279.441406 43.699219 C 278.777344 40.976562 275.253906 41.230469 272.496094 41.484375 C 269.617188 41.753906 230.929688 45.425781 228.789062 45.574219 C 228.789062 45.574219 229.378906 46.078125 230.179688 46.816406 C 234.671875 46.660156 248.894531 46.164062 254.964844 45.671875 C 260.71875 45.203125 274.109375 44.128906 279.433594 43.699219 " fill-opacity="1" fill-rule="nonzero"/><path fill="#51b335" d="M 279.441406 43.699219 C 274.117188 44.128906 260.726562 45.210938 254.972656 45.671875 C 248.902344 46.164062 234.679688 46.660156 230.1875 46.816406 C 231.394531 47.921875 233.082031 49.5625 233.984375 50.835938 C 233.984375 50.835938 261.75 48.609375 268.867188 47.875 C 275.988281 47.136719 279.9375 47.214844 279.523438 44.078125 C 279.507812 43.9375 279.46875 43.816406 279.449219 43.691406 " fill-opacity="1" fill-rule="nonzero"/><path fill="#bad5e0" d="M 266.867188 215.789062 C 269.953125 211.078125 273.359375 205.101562 274.613281 199.792969 C 266.929688 207.917969 249.511719 225.011719 245.175781 229.835938 C 240.910156 234.570312 219.808594 250.210938 210.726562 256.863281 C 208.792969 259.886719 207.570312 262.472656 207.875 263.820312 C 208.65625 267.25 210.753906 267.789062 218.019531 267.933594 C 225.285156 268.078125 233.914062 269.253906 238.742188 270.433594 C 243.570312 271.617188 249.789062 273.25 251.667969 271.460938 C 253.546875 269.675781 251.078125 269.304688 250.109375 269.113281 C 249.136719 268.921875 235.359375 265.882812 235.359375 265.882812 L 235.527344 261.574219 C 235.527344 261.574219 258.183594 265.261719 262.894531 266.246094 C 267.609375 267.226562 268.746094 266.835938 269.296875 265.824219 C 269.847656 264.808594 266.109375 263.828125 263.414062 263.214844 C 260.71875 262.601562 247.226562 260.308594 243.652344 259.886719 C 240.078125 259.464844 224.34375 257.992188 218.820312 259.132812 C 218.820312 259.132812 237.726562 246.550781 242.453125 242.09375 C 247.183594 237.636719 261.910156 223.390625 266.882812 215.796875 " fill-opacity="1" fill-rule="nonzero"/><path fill="#ffffff" d="M 245.167969 229.835938 C 249.511719 225.003906 266.929688 207.917969 274.605469 199.792969 C 275.367188 196.550781 275.335938 193.558594 273.933594 191.253906 C 270.226562 185.179688 266.769531 183.816406 260.816406 184.058594 C 254.867188 184.304688 243.5625 190.035156 236.632812 197.132812 C 236.632812 197.132812 236.535156 204.382812 233.21875 213.140625 C 229.90625 221.902344 227.613281 225.679688 227.613281 225.679688 C 227.613281 225.679688 235.753906 215.097656 238.144531 212.015625 C 240.539062 208.929688 248.824219 198.550781 252.726562 198.742188 C 252.726562 198.742188 247.265625 208.976562 243.027344 215.144531 C 238.789062 221.3125 227.421875 236.296875 221.816406 242.617188 C 218.410156 246.453125 213.710938 252.183594 210.726562 256.863281 C 219.808594 250.210938 240.910156 234.570312 245.175781 229.835938 " fill-opacity="1" fill-rule="nonzero"/><path fill="#bad5e0" d="M 123.714844 126.613281 C 120.789062 120.691406 121.132812 118.09375 121.132812 118.09375 L 118.980469 121.445312 C 119.859375 126.777344 122.699219 134.699219 130.855469 142.511719 L 134.972656 138.78125 C 134.972656 138.78125 126.632812 132.535156 123.714844 126.613281 " fill-opacity="1" fill-rule="nonzero"/><g clip-path="url(#04cc3cd7d3)"><g clip-path="url(#7f3e1f57ca)"><path fill="url(#e447387961)" d="M 201.757812 129.929688 L 201.757812 211.078125 L 228.757812 211.078125 L 228.757812 129.929688 Z M 201.757812 129.929688 " fill-rule="nonzero"/></g></g><path fill="#f1a021" d="M 201.824219 133.328125 C 202.335938 133.25 206.25 127.183594 207.988281 123.945312 C 207.828125 119.6875 208.179688 115.34375 209.433594 111.730469 C 209.449219 111.695312 209.457031 111.65625 209.472656 111.617188 C 207.84375 113.304688 204.621094 117.132812 202.949219 122.457031 C 200.65625 129.753906 201.191406 133.425781 201.824219 133.328125 " fill-opacity="1" fill-rule="nonzero"/><path fill="#ffffff" d="M 200.800781 216.179688 C 200.832031 215.917969 200.839844 215.667969 200.855469 215.414062 C 200.839844 215.683594 200.816406 215.949219 200.800781 216.179688 " fill-opacity="1" fill-rule="nonzero"/><path fill="#ffffff" d="M 192.828125 207.949219 C 192.707031 208.050781 192.582031 208.164062 192.460938 208.277344 C 192.589844 208.171875 192.714844 208.058594 192.828125 207.949219 " fill-opacity="1" fill-rule="nonzero"/><path fill="#1ba1c3" d="M 212.246094 181.222656 C 212.046875 185.324219 210.816406 188.25 207.820312 188.464844 C 205.964844 188.59375 204.398438 187.503906 202.941406 185.515625 C 203.238281 196.035156 200.472656 206.160156 199.359375 209.75 C 200.320312 211.234375 200.917969 213.21875 200.847656 215.40625 C 201.0625 212.113281 201.480469 206.484375 201.480469 206.484375 C 201.480469 206.484375 201.070312 212.113281 200.847656 215.40625 C 200.839844 215.660156 200.824219 215.917969 200.800781 216.171875 C 200.800781 216.171875 201.289062 210.105469 205.921875 210.296875 C 209.089844 210.425781 210.953125 214.507812 211.289062 219.488281 C 212.214844 218.367188 214 215.734375 215.238281 210.941406 C 214.804688 210.824219 214.511719 210.679688 214.511719 210.679688 C 214.511719 210.679688 214.804688 210.824219 215.238281 210.941406 C 215.8125 208.707031 216.269531 206.007812 216.460938 202.777344 C 216.964844 194.371094 214.230469 186.054688 212.246094 181.222656 " fill-opacity="1" fill-rule="nonzero"/><g clip-path="url(#f1cdb794e7)"><g clip-path="url(#9ec19fe056)"><path fill="url(#e6b955a69a)" d="M 177.902344 106.347656 L 177.902344 188.480469 L 212.320312 188.480469 L 212.320312 106.347656 Z M 177.902344 106.347656 " fill-rule="nonzero"/></g></g><g clip-path="url(#f8a4ad3e88)"><g clip-path="url(#952f8275bb)"><path fill="url(#e89dff072b)" d="M 169.980469 207.058594 L 169.980469 243.644531 L 200.9375 243.644531 L 200.9375 207.058594 Z M 169.980469 207.058594 " fill-rule="nonzero"/></g></g><path fill="#231916" d="M 138.050781 209.882812 C 139.34375 210.566406 142.511719 210.933594 142.511719 208.976562 C 142.511719 207.019531 139.585938 205.378906 137.785156 204.449219 C 135.980469 203.523438 132.917969 203.007812 132.546875 204.449219 C 131.867188 207.097656 136.761719 209.199219 138.050781 209.890625 " fill-opacity="1" fill-rule="nonzero"/><path fill="#ffffff" d="M 132.546875 204.449219 C 132.917969 203.007812 135.980469 203.523438 137.785156 204.449219 C 139.585938 205.378906 142.511719 207.019531 142.511719 208.976562 C 142.511719 210.933594 139.34375 210.566406 138.050781 209.882812 C 136.761719 209.199219 131.859375 207.089844 132.546875 204.441406 M 126.472656 207.941406 C 128.839844 208.355469 134.953125 212.820312 138.097656 215.207031 C 141.246094 217.59375 146.09375 221.210938 150.25 220.59375 C 154.40625 219.96875 154.152344 217.101562 153.664062 215.828125 C 153.207031 214.636719 152.429688 212.429688 150.695312 210.195312 C 149.769531 209.859375 149.25 209.621094 149.25 209.621094 C 149.25 209.621094 149.777344 209.859375 150.695312 210.195312 C 150.570312 210.035156 150.457031 209.882812 150.320312 209.71875 C 149.242188 208.453125 147.660156 206.414062 146.410156 204.789062 C 141.980469 203.804688 137.425781 202.304688 132.882812 199.964844 C 121.859375 194.285156 107.917969 194.96875 102.800781 200.355469 C 101.707031 201.503906 100.769531 202.625 100.042969 203.761719 C 100.992188 205.664062 103.457031 209.5 109.859375 216.089844 C 119.804688 226.339844 147.042969 242.59375 154.261719 246.644531 C 157.851562 248.660156 161.21875 250.65625 163.695312 252.160156 C 160.195312 248.164062 156.253906 244.449219 152.414062 240.890625 C 149.769531 238.441406 146.84375 236.332031 143.972656 234.164062 C 140.992188 231.914062 138.410156 229.382812 135.921875 226.597656 C 131.972656 222.1875 127.695312 217.308594 125.195312 211.867188 C 124.835938 211.09375 124.296875 209.996094 124.539062 209.117188 C 124.539062 209.117188 124.546875 209.125 124.554688 209.125 C 124.515625 208.667969 124.609375 207.605469 126.496094 207.933594 " fill-opacity="1" fill-rule="nonzero"/><g clip-path="url(#125d701836)"><g clip-path="url(#4fdfb2b381)"><path fill="url(#28337f0c1d)" d="M 197.441406 198.25 L 197.441406 242.785156 L 226.667969 242.785156 L 226.667969 198.25 Z M 197.441406 198.25 " fill-rule="nonzero"/></g></g><path fill="#bad5e0" d="M 109.851562 216.097656 C 103.449219 209.507812 100.984375 205.671875 100.035156 203.769531 C 97.347656 207.941406 97.394531 212.328125 102.257812 219.410156 C 108.453125 228.417969 126.152344 238.949219 139.75 246.980469 C 153.34375 255.015625 160.226562 259.371094 160.226562 259.371094 C 160.226562 259.371094 144.140625 258.273438 137.371094 259.257812 C 130.605469 260.238281 113.808594 262.816406 110.132812 263.660156 C 106.460938 264.503906 107.277344 266.660156 108.707031 267.21875 C 110.132812 267.78125 116.542969 265.585938 123.921875 264.574219 C 131.300781 263.558594 142.351562 261.574219 142.351562 261.574219 L 141.863281 265.847656 C 141.863281 265.847656 124.152344 268.363281 123.988281 270.25 C 123.828125 272.136719 127.375 272.144531 128.773438 271.914062 C 130.167969 271.683594 142.980469 269.695312 149.121094 268.515625 C 155.261719 267.335938 165.597656 268.953125 169.066406 266.460938 C 172.53125 263.964844 169.554688 259.554688 166.671875 255.789062 C 165.726562 254.554688 164.726562 253.339844 163.6875 252.160156 C 161.210938 250.65625 157.84375 248.660156 154.253906 246.644531 C 147.035156 242.59375 119.796875 226.339844 109.851562 216.089844 " fill-opacity="1" fill-rule="nonzero"/><g clip-path="url(#3aba4212a8)"><g clip-path="url(#d43b244ff6)"><path fill="url(#aec4b429a0)" d="M 182.1875 210.296875 L 182.1875 244.082031 L 211.425781 244.082031 L 211.425781 210.296875 Z M 182.1875 210.296875 " fill-rule="nonzero"/></g></g><path fill="#21943e" d="M 150.695312 210.203125 C 153.023438 211.046875 157.957031 212.507812 163.9375 212.34375 C 172.296875 212.113281 180.0625 208.460938 180.0625 208.460938 C 180.0625 208.460938 183.117188 210.878906 188.121094 210.066406 C 190 209.757812 191.414062 209.144531 192.460938 208.285156 C 192.582031 208.164062 192.707031 208.058594 192.828125 207.957031 C 194.308594 206.546875 194.960938 204.566406 195.109375 202.265625 C 195.371094 198.28125 193.746094 193.648438 192.773438 192.988281 C 192.773438 192.988281 197.914062 189.269531 192.84375 186.246094 C 192.765625 187.074219 192.574219 187.886719 192.1875 188.609375 C 191.566406 189.761719 190.519531 190.605469 189.398438 191.226562 C 189.398438 191.226562 193.101562 192.988281 192.484375 198.273438 C 191.863281 203.5625 188.488281 204.183594 186.144531 204.480469 C 183.796875 204.78125 181.300781 203.308594 178.964844 203.277344 C 176.625 203.246094 173.441406 206.675781 164.207031 206.574219 C 158.78125 206.515625 152.726562 206.199219 146.417969 204.8125 C 147.667969 206.4375 149.257812 208.46875 150.328125 209.742188 C 150.464844 209.90625 150.578125 210.058594 150.703125 210.21875 " fill-opacity="1" fill-rule="nonzero"/><path fill="#ffffff" d="M 142.742188 155.707031 C 141.535156 157.625 139.105469 162.539062 141.839844 167.75 C 143.835938 171.554688 145.714844 173.789062 148.128906 175.492188 C 146.621094 172.316406 145.234375 168.203125 144.636719 166.152344 C 144.117188 164.34375 143.324219 159.640625 142.742188 155.714844 " fill-opacity="1" fill-rule="nonzero"/><g clip-path="url(#4221e6d5ad)"><g clip-path="url(#3084620c2e)"><path fill="url(#56f75bbb5e)" d="M 124.5 207.886719 L 124.5 241.128906 L 192.46875 241.128906 L 192.46875 207.886719 Z M 124.5 207.886719 " fill-rule="nonzero"/></g></g><g clip-path="url(#a0b165a4b4)"><g clip-path="url(#3a566ae72d)"><path fill="url(#ecbd1e8c56)" d="M 141.917969 147.671875 L 141.917969 209.757812 L 203.230469 209.757812 L 203.230469 147.671875 Z M 141.917969 147.671875 " fill-rule="nonzero"/></g></g><path fill="#4cb239" d="M 158.972656 138.492188 C 159.082031 138.535156 159.667969 138.675781 159.722656 138.789062 C 157.675781 134.65625 154.316406 132.03125 153.847656 132.714844 C 153.421875 133.34375 153.957031 134.101562 154.308594 134.625 C 155.476562 136.320312 157.09375 137.683594 158.972656 138.492188 " fill-opacity="1" fill-rule="nonzero"/><path fill="#efb028" d="M 172.355469 144.074219 C 172.449219 144.019531 172.53125 143.945312 172.601562 143.851562 C 172.875 143.484375 172.953125 142.878906 172.992188 142.472656 C 173.050781 141.8125 172.992188 141.144531 172.953125 140.476562 C 172.800781 137.691406 172.273438 134.808594 170.371094 132.644531 C 169.867188 132.078125 168.996094 131.632812 168.222656 131.714844 C 167.085938 131.839844 166.742188 133.113281 166.664062 134.078125 C 166.375 137.777344 168.371094 140.613281 169.539062 142.304688 C 170.019531 142.992188 171.347656 144.667969 172.347656 144.066406 " fill-opacity="1" fill-rule="nonzero"/><path fill="#ea5530" d="M 180.757812 161.214844 C 181.347656 159.425781 180.414062 158.199219 178.789062 154.777344 C 177.160156 151.355469 174.90625 148.488281 173.691406 148.878906 C 172.476562 149.269531 172.792969 151.714844 175.640625 156.734375 C 178.492188 161.75 180.757812 161.214844 180.757812 161.214844 " fill-opacity="1" fill-rule="nonzero"/><path fill="#60b640" d="M 138.050781 209.882812 C 139.34375 210.566406 142.511719 210.933594 142.511719 208.976562 C 142.511719 207.019531 139.585938 205.378906 137.785156 204.449219 C 135.980469 203.523438 132.917969 203.007812 132.546875 204.449219 C 131.867188 207.097656 136.761719 209.199219 138.050781 209.890625 " fill-opacity="1" fill-rule="nonzero"/><path fill="#ffffff" d="M 198.457031 80.5625 C 198.457031 73.488281 196.050781 67.089844 186.113281 67.023438 C 179.292969 66.976562 173.769531 73.488281 173.769531 80.5625 C 173.769531 87.636719 178.359375 90.671875 185.183594 90.671875 C 192.003906 90.671875 198.464844 87.628906 198.464844 80.5625 " fill-opacity="1" fill-rule="nonzero"/><path fill="#e60013" d="M 207.882812 172.734375 C 196.289062 173.273438 185.433594 171.226562 174 169.890625 C 177.605469 180.507812 180.476562 191.132812 183.363281 201.988281 C 192.019531 192.730469 201.128906 183.738281 207.890625 172.734375 " fill-opacity="1" fill-rule="nonzero"/><path fill="#142749" d="M 174.664062 164.742188 C 172.960938 164.910156 171.433594 165.363281 170.363281 166.9375 C 169.292969 168.507812 168.726562 169.914062 169.421875 172.007812 C 172.84375 182.296875 175.910156 193.089844 178.605469 203.667969 C 179.15625 205.824219 180.53125 206.523438 182.234375 207.242188 C 182.324219 207.28125 182.410156 207.3125 182.507812 207.304688 C 184.417969 207.195312 185.503906 207.425781 187.054688 205.546875 C 195.042969 195.789062 204.957031 186.300781 211.871094 175.707031 C 213.285156 173.542969 213.175781 172.191406 212.359375 170.304688 C 211.542969 168.417969 210.527344 167.519531 208.273438 167.527344 C 197.226562 167.558594 186.035156 165.992188 174.914062 164.757812 C 174.800781 164.742188 174.746094 164.726562 174.648438 164.734375 C 174.550781 164.742188 174.648438 164.734375 174.648438 164.734375 M 173.976562 169.882812 C 185.417969 171.21875 196.265625 173.265625 207.867188 172.730469 C 201.109375 183.730469 192.003906 192.722656 183.339844 201.980469 C 180.453125 191.117188 177.582031 180.5 173.976562 169.882812 " fill-opacity="1" fill-rule="nonzero"/><path fill="#ffffff" d="M 153.847656 132.714844 C 154.316406 132.03125 157.675781 134.648438 159.722656 138.789062 C 159.667969 138.683594 159.089844 138.542969 158.972656 138.492188 C 157.09375 137.679688 155.476562 136.320312 154.308594 134.625 C 153.949219 134.101562 153.421875 133.34375 153.839844 132.714844 M 166.664062 134.085938 C 166.742188 133.121094 167.085938 131.847656 168.222656 131.722656 C 168.996094 131.640625 169.867188 132.085938 170.371094 132.652344 C 172.273438 134.816406 172.800781 137.699219 172.953125 140.484375 C 172.992188 141.144531 173.050781 141.8125 172.992188 142.480469 C 172.953125 142.878906 172.875 143.484375 172.601562 143.859375 C 172.53125 143.953125 172.457031 144.027344 172.363281 144.082031 C 171.363281 144.683594 170.035156 143.007812 169.554688 142.3125 C 168.382812 140.621094 166.382812 137.785156 166.671875 134.085938 M 173.691406 148.878906 C 174.914062 148.488281 177.152344 151.347656 178.789062 154.777344 C 180.421875 158.207031 181.347656 159.425781 180.765625 161.214844 C 180.765625 161.214844 178.5 161.75 175.648438 156.734375 C 172.800781 151.714844 172.476562 149.269531 173.699219 148.878906 M 185.050781 71.824219 C 185.050781 71.824219 179.117188 71.519531 176.519531 77.425781 C 176.519531 77.425781 167.84375 77.410156 160.523438 79.710938 C 153.207031 82.011719 147.851562 85.824219 144.828125 89.253906 C 144.828125 89.253906 139.808594 83.476562 130.878906 84.113281 C 121.949219 84.75 117.71875 93.175781 118.007812 98.660156 C 118.300781 104.144531 120.644531 108.695312 124.058594 111.292969 C 124.058594 111.292969 119.039062 112.613281 118.695312 115.796875 C 118.582031 116.839844 118.550781 118.835938 118.980469 121.453125 L 121.132812 118.097656 C 121.132812 118.097656 120.789062 120.691406 123.714844 126.621094 C 126.640625 132.550781 134.972656 138.789062 134.972656 138.789062 L 130.855469 142.519531 C 130.933594 142.585938 131.003906 142.664062 131.078125 142.734375 C 131.078125 142.734375 122.652344 150.496094 118.253906 161.121094 C 118.589844 164.207031 120.453125 172.851562 130.726562 180.0625 C 143.46875 189.007812 150.296875 191.292969 159.785156 192.207031 C 165.480469 192.757812 172.050781 191.324219 176.390625 190.097656 C 176.558594 189.953125 176.71875 189.820312 176.847656 189.730469 C 178.3125 188.6875 180.492188 187.441406 184.066406 187.152344 C 187.640625 186.859375 187.609375 184.144531 186.371094 183.660156 C 185.136719 183.175781 181.203125 184.804688 179.515625 185.484375 C 177.824219 186.167969 172.59375 188.355469 166.574219 186.859375 C 169.179688 185.648438 172.234375 184.015625 173.335938 181.207031 C 173.800781 180.015625 174.34375 178.238281 172.554688 178.046875 C 170.730469 177.847656 170.210938 179.546875 169.078125 180.882812 C 167.949219 182.21875 165.535156 185.386719 157.578125 185.125 C 149.617188 184.867188 142.820312 180.523438 140.382812 178.136719 C 137.945312 175.75 133.523438 170.726562 135.210938 163.15625 C 136.5625 157.101562 140.941406 155.429688 142.644531 155 C 142.300781 152.644531 142.054688 150.664062 142 149.929688 C 141.871094 147.933594 142.621094 146.046875 143.238281 149.960938 C 143.859375 153.871094 145.1875 156.585938 147.105469 162.824219 C 149.019531 169.0625 154.511719 170.789062 156.859375 170.757812 C 159.203125 170.726562 162.320312 168.570312 163.128906 165.011719 C 163.9375 161.453125 163.75 153.8125 168.492188 154.140625 C 173.234375 154.46875 176.0625 164.519531 177.269531 167.558594 C 178.476562 170.59375 181.171875 174.675781 185.226562 172.550781 C 188.273438 170.964844 188.597656 167.375 187.777344 163.960938 C 187.320312 163.746094 187.054688 163.644531 187.054688 163.644531 C 187.054688 163.644531 187.320312 163.746094 187.777344 163.960938 C 187.503906 162.824219 187.105469 161.703125 186.632812 160.683594 C 184.753906 156.59375 181.757812 151.703125 180.558594 149.691406 C 179.359375 147.679688 177.902344 144.160156 179.558594 143.347656 C 181.21875 142.535156 182.410156 144.742188 183.164062 145.917969 C 183.921875 147.089844 184.625 151.839844 186.257812 155.757812 C 187.894531 159.679688 190.230469 160.339844 192.011719 159.75 C 193.789062 159.15625 194.738281 155.613281 194.300781 150.027344 C 193.867188 144.445312 191.519531 132.84375 195.570312 120.253906 C 199.617188 107.667969 204.941406 106.347656 204.941406 106.347656 C 204.941406 106.347656 204.652344 106.984375 201.277344 114.179688 C 197.898438 121.375 197.339844 130.78125 197.730469 134.5 C 198.007812 137.101562 199.464844 142.59375 201.757812 144.382812 C 200.9375 142.585938 200.253906 141.160156 199.878906 140.53125 C 200.257812 141.160156 200.9375 142.585938 201.757812 144.382812 C 202.742188 145.148438 203.878906 145.234375 205.140625 144.097656 C 207.953125 141.574219 208.480469 134.402344 208.523438 129.9375 C 208.257812 128.019531 208.066406 125.992188 207.988281 123.953125 C 206.25 127.191406 202.335938 133.25 201.824219 133.335938 C 201.191406 133.433594 200.65625 129.761719 202.949219 122.464844 C 204.621094 117.140625 207.84375 113.3125 209.472656 111.625 C 211.902344 104.445312 210.367188 95.125 210.3125 92.589844 C 210.273438 90.726562 208.945312 88.75 207.953125 87.269531 C 206.609375 85.273438 204.964844 83.21875 202.804688 82.066406 " fill-opacity="1" fill-rule="nonzero"/><path fill="#bad5e0" d="M 159.785156 192.199219 C 150.296875 191.285156 143.46875 189 130.726562 180.054688 C 120.460938 172.84375 118.589844 164.199219 118.253906 161.113281 C 118.015625 161.683594 117.789062 162.265625 117.574219 162.847656 C 113.425781 174.355469 121.132812 183.460938 129.375 188.945312 C 137.617188 194.433594 145.5625 197.414062 159.019531 199.28125 C 172.476562 201.144531 173.210938 196.734375 179.5 197.714844 C 185.785156 198.699219 186.664062 198.742188 186.664062 197.078125 C 186.664062 195.414062 186.074219 194.226562 181.203125 194.355469 C 176.328125 194.484375 171.617188 195.074219 171.617188 195.074219 C 171.617188 195.074219 174.722656 191.53125 176.390625 190.097656 C 172.050781 191.324219 165.488281 192.757812 159.785156 192.207031 " fill-opacity="1" fill-rule="nonzero"/><path fill="#142749" d="M 212.273438 92.792969 C 212.273438 92.792969 196.777344 98.898438 190.160156 102.808594 C 183.546875 106.722656 169.492188 114.234375 160.769531 117.691406 C 152.046875 121.152344 141.992188 125.59375 136.226562 122.949219 C 130.460938 120.300781 132.109375 119.574219 133.234375 119.863281 C 134.355469 120.15625 140.816406 119.519531 143.894531 117.664062 C 146.972656 115.804688 175.328125 101.796875 180.316406 99.003906 C 185.304688 96.210938 200.390625 89.605469 210.792969 88.917969 Z M 212.273438 92.792969 " fill-opacity="1" fill-rule="nonzero"/><path fill="#142749" d="M 142.660156 98.558594 C 142.660156 104.359375 137.976562 109.054688 132.207031 109.054688 C 126.441406 109.054688 121.753906 104.359375 121.753906 98.558594 C 121.753906 92.761719 126.433594 88.066406 132.203125 88.066406 C 137.96875 88.066406 142.652344 92.769531 142.652344 98.558594 " fill-opacity="1" fill-rule="nonzero"/><path fill="#142749" d="M 195.546875 78.996094 C 195.546875 83.960938 191.542969 87.980469 186.601562 87.980469 C 181.660156 87.980469 177.65625 83.960938 177.65625 78.996094 C 177.65625 74.035156 181.660156 70.015625 186.601562 70.015625 C 191.542969 70.015625 195.546875 74.035156 195.546875 78.996094 " fill-opacity="1" fill-rule="nonzero"/><path fill="#ffffff" d="M 182.019531 78.460938 C 183.324219 78.460938 183.984375 77.761719 183.984375 76.550781 C 183.984375 75.339844 183.453125 74.730469 182.386719 74.730469 C 181.316406 74.730469 180.621094 75.445312 180.621094 76.6875 C 180.621094 77.929688 181.261719 78.460938 182.027344 78.460938 " fill-opacity="1" fill-rule="nonzero"/><path fill="#ffffff" d="M 126.855469 97.9375 C 128.382812 97.9375 129.144531 97.125 129.144531 95.699219 C 129.144531 94.273438 128.527344 93.574219 127.273438 93.574219 C 126.023438 93.574219 125.210938 94.402344 125.210938 95.859375 C 125.210938 97.316406 125.960938 97.929688 126.855469 97.929688 " fill-opacity="1" fill-rule="nonzero"/><path fill="#142749" d="M 146.242188 204.796875 C 152.550781 206.191406 158.609375 206.507812 164.03125 206.558594 C 173.257812 206.660156 176.449219 203.230469 178.789062 203.261719 C 181.125 203.292969 183.632812 204.765625 185.96875 204.464844 C 188.304688 204.167969 191.691406 203.554688 192.308594 198.257812 C 192.925781 192.964844 189.222656 191.210938 189.222656 191.210938 C 190.351562 190.589844 191.398438 189.746094 192.011719 188.59375 C 192.398438 187.871094 192.589844 187.058594 192.667969 186.230469 C 192.722656 185.65625 192.730469 185.074219 192.699219 184.511719 C 192.523438 181.273438 189.917969 178.542969 186.714844 178.214844 C 182.234375 177.753906 179.566406 180.5 179.566406 180.5 C 179.527344 178.675781 179.507812 177.078125 178.550781 175.46875 C 177.75 174.109375 176.503906 172.972656 174.992188 172.46875 C 172.203125 171.546875 168.101562 172.507812 167.046875 175.566406 C 165.75 179.355469 160.984375 181.542969 154.652344 178.898438 C 151.917969 177.753906 149.777344 176.765625 147.953125 175.476562 C 145.539062 173.773438 143.667969 171.539062 141.664062 167.734375 C 138.929688 162.523438 141.359375 157.617188 142.566406 155.691406 C 142.527344 155.453125 142.496094 155.214844 142.460938 154.976562 C 140.757812 155.40625 136.378906 157.070312 135.027344 163.132812 C 133.339844 170.703125 137.753906 175.738281 140.199219 178.113281 C 142.644531 180.492188 149.425781 184.84375 157.394531 185.101562 C 165.359375 185.363281 167.765625 182.195312 168.894531 180.859375 C 170.027344 179.527344 170.554688 177.824219 172.378906 178.023438 C 174.167969 178.214844 173.625 179.992188 173.160156 181.183594 C 172.058594 183.992188 169.003906 185.625 166.398438 186.835938 C 172.410156 188.339844 177.640625 186.15625 179.339844 185.464844 C 181.035156 184.773438 184.960938 183.148438 186.199219 183.636719 C 187.433594 184.128906 187.464844 186.835938 183.890625 187.128906 C 180.316406 187.421875 178.140625 188.664062 176.671875 189.707031 C 176.542969 189.796875 176.382812 189.929688 176.214844 190.074219 C 174.550781 191.507812 171.441406 195.054688 171.441406 195.054688 C 171.441406 195.054688 176.152344 194.460938 181.027344 194.332031 C 185.898438 194.203125 186.488281 195.390625 186.488281 197.054688 C 186.488281 198.71875 185.609375 198.675781 179.324219 197.691406 C 173.035156 196.710938 172.304688 201.121094 158.84375 199.257812 " fill-opacity="1" fill-rule="nonzero"/><path fill="#e60013" d="M 177.070312 170.425781 C 177.65625 172.90625 178.863281 175.152344 179.949219 177.460938 C 180.796875 177.617188 181.691406 177.667969 182.609375 177.644531 C 186.777344 176.695312 190.832031 175.207031 195.082031 174.46875 C 196.28125 174.261719 197.480469 174.101562 198.679688 173.972656 C 200.625 173.589844 202.582031 173.273438 204.539062 172.988281 C 195.21875 173.035156 186.296875 171.601562 177.070312 170.433594 " fill-opacity="1" fill-rule="nonzero"/><path fill="#142749" d="M 212.421875 170.464844 C 211.601562 168.578125 210.585938 167.679688 208.332031 167.6875 C 197.289062 167.71875 186.097656 166.144531 174.976562 164.917969 C 174.863281 164.902344 174.808594 164.886719 174.710938 164.894531 C 173 165.066406 171.476562 165.519531 170.410156 167.089844 C 169.460938 168.472656 168.917969 169.730469 169.277344 171.441406 C 169.347656 171.410156 169.414062 171.394531 169.484375 171.363281 C 169.277344 169.445312 170.1875 167.566406 172.1875 167.011719 C 174.050781 166.5 176.511719 167.652344 176.886719 169.691406 C 176.933594 169.9375 177 170.175781 177.0625 170.417969 C 186.289062 171.585938 195.210938 173.027344 204.53125 172.972656 C 207.308594 172.574219 210.105469 172.246094 212.902344 171.945312 C 212.800781 171.476562 212.640625 170.996094 212.414062 170.464844 " fill-opacity="1" fill-rule="nonzero"/><g clip-path="url(#479ebdd8ec)"><g clip-path="url(#939e92ce08)"><g clip-path="url(#b888f3c5e0)"><path fill="#142749" d="M 292.800781 293.527344 L 303.5 293.527344 L 303.5 304.203125 L 292.800781 304.203125 Z M 292.800781 293.527344 " fill-opacity="1" fill-rule="nonzero"/></g></g></g><path fill="#142749" d="M 63.402344 328.226562 C 60.738281 328.226562 58.265625 327.789062 55.980469 326.921875 C 53.695312 326.054688 51.71875 324.816406 50.042969 323.210938 C 48.367188 321.605469 47.0625 319.71875 46.121094 317.554688 C 45.1875 315.390625 44.71875 313.011719 44.71875 310.421875 C 44.71875 307.832031 45.1875 305.457031 46.121094 303.296875 C 47.0625 301.132812 48.375 299.25 50.070312 297.644531 C 51.761719 296.039062 53.742188 294.800781 56.007812 293.929688 C 58.273438 293.0625 60.757812 292.625 63.449219 292.625 C 66.441406 292.625 69.140625 293.140625 71.558594 294.175781 C 73.972656 295.207031 76 296.722656 77.644531 298.71875 L 72.519531 303.441406 C 71.335938 302.101562 70.023438 301.09375 68.574219 300.421875 C 67.128906 299.75 65.550781 299.410156 63.84375 299.410156 C 62.230469 299.410156 60.753906 299.675781 59.40625 300.199219 C 58.058594 300.722656 56.894531 301.476562 55.90625 302.460938 C 54.921875 303.445312 54.15625 304.609375 53.617188 305.953125 C 53.074219 307.292969 52.804688 308.785156 52.804688 310.421875 C 52.804688 312.0625 53.074219 313.554688 53.617188 314.898438 C 54.15625 316.246094 54.921875 317.410156 55.90625 318.390625 C 56.894531 319.375 58.058594 320.128906 59.40625 320.652344 C 60.753906 321.175781 62.230469 321.441406 63.84375 321.441406 C 65.550781 321.441406 67.128906 321.105469 68.574219 320.433594 C 70.023438 319.761719 71.335938 318.734375 72.519531 317.359375 L 77.644531 322.078125 C 76 324.082031 73.972656 325.605469 71.558594 326.65625 C 69.140625 327.703125 66.421875 328.226562 63.402344 328.226562 Z M 63.402344 328.226562 " fill-opacity="1" fill-rule="nonzero"/><path fill="#142749" d="M 82.570312 293.214844 L 90.554688 293.214844 L 90.554688 327.636719 L 82.570312 327.636719 Z M 82.570312 293.214844 " fill-opacity="1" fill-rule="nonzero"/><path fill="#142749" d="M 98.734375 327.636719 L 98.734375 293.214844 L 105.339844 293.214844 L 125.695312 317.996094 L 122.492188 317.996094 L 122.492188 293.214844 L 130.375 293.214844 L 130.375 327.636719 L 123.820312 327.636719 L 103.417969 302.855469 L 106.621094 302.855469 L 106.621094 327.636719 Z M 98.734375 327.636719 " fill-opacity="1" fill-rule="nonzero"/><path fill="#142749" d="M 138.554688 327.636719 L 138.554688 293.214844 L 164.625 293.214844 L 164.625 299.609375 L 146.488281 299.609375 L 146.488281 321.242188 L 165.265625 321.242188 L 165.265625 327.636719 Z M 145.894531 313.277344 L 145.894531 307.082031 L 162.507812 307.082031 L 162.507812 313.277344 Z M 145.894531 313.277344 " fill-opacity="1" fill-rule="nonzero"/><path fill="#142749" d="M 171.625 327.636719 L 171.625 293.214844 L 179.609375 293.214844 L 179.609375 321.140625 L 196.90625 321.140625 L 196.90625 327.636719 Z M 171.625 327.636719 " fill-opacity="1" fill-rule="nonzero"/><path fill="#142749" d="M 201.390625 293.214844 L 209.375 293.214844 L 209.375 327.636719 L 201.390625 327.636719 Z M 201.390625 293.214844 " fill-opacity="1" fill-rule="nonzero"/><path fill="#142749" d="M 217.554688 327.636719 L 217.554688 293.214844 L 224.160156 293.214844 L 244.515625 317.996094 L 241.308594 317.996094 L 241.308594 293.214844 L 249.195312 293.214844 L 249.195312 327.636719 L 242.640625 327.636719 L 222.238281 302.855469 L 225.441406 302.855469 L 225.441406 327.636719 Z M 217.554688 327.636719 " fill-opacity="1" fill-rule="nonzero"/><path fill="#142749" d="M 274.035156 328.226562 C 271.308594 328.226562 268.800781 327.789062 266.519531 326.921875 C 264.234375 326.054688 262.246094 324.816406 260.554688 323.210938 C 258.859375 321.605469 257.546875 319.71875 256.605469 317.554688 C 255.671875 315.390625 255.203125 313.011719 255.203125 310.421875 C 255.203125 307.832031 255.671875 305.457031 256.605469 303.296875 C 257.546875 301.132812 258.867188 299.25 260.574219 297.644531 C 262.285156 296.039062 264.289062 294.800781 266.589844 293.929688 C 268.886719 293.0625 271.417969 292.625 274.179688 292.625 C 277.238281 292.625 279.988281 293.136719 282.4375 294.152344 C 284.882812 295.167969 286.945312 296.640625 288.621094 298.574219 L 283.5 303.296875 C 282.246094 301.984375 280.882812 301.007812 279.402344 300.371094 C 277.925781 299.730469 276.316406 299.410156 274.574219 299.410156 C 272.898438 299.410156 271.371094 299.675781 269.992188 300.199219 C 268.609375 300.722656 267.417969 301.476562 266.417969 302.460938 C 265.414062 303.445312 264.640625 304.609375 264.101562 305.953125 C 263.558594 307.292969 263.289062 308.785156 263.289062 310.421875 C 263.289062 312.03125 263.558594 313.507812 264.101562 314.851562 C 264.640625 316.195312 265.414062 317.367188 266.417969 318.367188 C 267.417969 319.367188 268.601562 320.128906 269.964844 320.652344 C 271.332031 321.175781 272.835938 321.441406 274.476562 321.441406 C 276.054688 321.441406 277.589844 321.1875 279.082031 320.679688 C 280.578125 320.167969 282.035156 319.308594 283.445312 318.097656 L 287.980469 323.851562 C 286.109375 325.257812 283.933594 326.34375 281.449219 327.097656 C 278.96875 327.847656 276.5 328.226562 274.035156 328.226562 Z M 287.980469 323.851562 L 280.6875 322.816406 L 280.6875 309.886719 L 287.980469 309.886719 Z M 287.980469 323.851562 " fill-opacity="1" fill-rule="nonzero"/><path fill="#142749" d="M 312.128906 328.226562 C 309.398438 328.226562 306.878906 327.785156 304.5625 326.898438 C 302.246094 326.015625 300.242188 324.769531 298.550781 323.164062 C 296.859375 321.558594 295.542969 319.671875 294.605469 317.507812 C 293.667969 315.34375 293.199219 312.980469 293.199219 310.421875 C 293.199219 307.867188 293.667969 305.507812 294.605469 303.34375 C 295.542969 301.179688 296.863281 299.296875 298.574219 297.691406 C 300.28125 296.085938 302.285156 294.839844 304.585938 293.957031 C 306.886719 293.070312 309.382812 292.625 312.078125 292.625 C 314.808594 292.625 317.3125 293.070312 319.597656 293.957031 C 321.878906 294.839844 323.867188 296.085938 325.558594 297.691406 C 327.253906 299.296875 328.574219 301.171875 329.523438 303.320312 C 330.476562 305.464844 330.953125 307.832031 330.953125 310.421875 C 330.953125 312.980469 330.476562 315.351562 329.523438 317.53125 C 328.574219 319.710938 327.253906 321.597656 325.558594 323.183594 C 323.867188 324.777344 321.878906 326.015625 319.597656 326.898438 C 317.3125 327.785156 314.824219 328.226562 312.128906 328.226562 Z M 312.078125 321.441406 C 313.625 321.441406 315.042969 321.175781 316.34375 320.652344 C 317.640625 320.128906 318.78125 319.375 319.765625 318.390625 C 320.75 317.410156 321.515625 316.246094 322.054688 314.898438 C 322.601562 313.554688 322.871094 312.0625 322.871094 310.421875 C 322.871094 308.785156 322.601562 307.292969 322.054688 305.953125 C 321.515625 304.609375 320.757812 303.445312 319.789062 302.460938 C 318.820312 301.476562 317.679688 300.722656 316.363281 300.199219 C 315.050781 299.675781 313.625 299.410156 312.078125 299.410156 C 310.535156 299.410156 309.113281 299.675781 307.816406 300.199219 C 306.519531 300.722656 305.375 301.476562 304.386719 302.460938 C 303.402344 303.445312 302.640625 304.609375 302.097656 305.953125 C 301.558594 307.292969 301.289062 308.785156 301.289062 310.421875 C 301.289062 312.03125 301.558594 313.515625 302.097656 314.878906 C 302.640625 316.238281 303.394531 317.410156 304.367188 318.390625 C 305.335938 319.375 306.476562 320.128906 307.789062 320.652344 C 309.105469 321.175781 310.535156 321.441406 312.078125 321.441406 Z M 312.078125 321.441406 " fill-opacity="1" fill-rule="nonzero"/><g clip-path="url(#1ab8bf3865)"><g clip-path="url(#a3924128e6)"><g clip-path="url(#38a81709fe)"><path fill="#142749" d="M 319.496094 293.527344 L 330.199219 293.527344 L 330.199219 304.203125 L 319.496094 304.203125 Z M 319.496094 293.527344 " fill-opacity="1" fill-rule="nonzero"/></g></g></g></svg>